<svg width="900" height="300" xmlns="http://www.w3.org/2000/svg">
 <g id="Layer_1">
  <title>Layer 1</title>
  <g stroke="null">
   <g stroke="null">
    <g stroke="null">
     <rect stroke="null" x="1.75017" y="0.5" fill="url(#svg_87)" height="281.46192" width="902.49962"/>
     <path stroke="null" fill="url(#svg_86)" d="m887.46399,227.86303c0,0 -34.21061,-9.68732 -48.57454,-3.63518c0,0 3.25868,-17.23338 -16.74707,-15.533c0,0 -26.07774,7.42946 -35.75005,17.21516c0,0 -3.76214,-4.0129 -6.498,-3.92667c-2.73585,0.08745 -3.79119,2.30766 -3.79119,2.30766s-45.15403,-6.023 -81.89994,4.32869l209.03828,-0.88906c0,0 -6.2352,-2.28823 -15.77749,0.13239z"/>
     <path stroke="null" fill="url(#svg_85)" d="m12.7987,218.86071c0,0 20.52028,-4.39306 43.09176,-5.19103l8.39428,3.93031c0,0 19.30727,-15.19899 53.16518,-17.39613c0,0 37.61037,-0.71173 49.66722,16.49614l23.90345,-1.00565c0,0 58.02416,4.23881 81.83078,0.63036c23.80663,-3.60967 64.25797,3.187 64.25797,3.187l-324.31065,-0.651z"/>
     <g stroke="null">
      <path stroke="null" fill="url(#svg_84)" d="m1.75017,34.32668c0,0 39.77637,-13.21319 68.50422,-6.00599s30.09577,46.83947 30.09577,46.83947s20.55901,-14.39981 38.30333,-10.80107c11.8466,2.4024 9.57549,12.41279 7.52429,18.8949c4.10378,3.6291 44.77643,14.7411 53.05453,17.1435c8.2781,2.4024 9.11075,6.62056 13.02642,10.31768c3.91567,3.69712 26.02795,8.17884 40.84969,7.93957c14.82174,-0.23927 34.85654,3.18093 53.90931,3.57323c19.05277,0.3923 44.84835,1.08217 44.84835,1.08217s-58.87755,1.89107 -81.66619,0s-42.40158,-1.42832 -71.92611,-3.46149c-29.52315,-2.03317 -86.8917,-0.54169 -102.32478,-4.59103c0,0 -28.43047,6.023 -57.15831,4.59103c-28.72784,-1.43318 -37.04052,-2.86393 -37.04052,-2.86393l0,-82.65803z"/>
      <path stroke="null" fill="url(#svg_83)" d="m1.75017,66.23558c0,0 21.08045,-2.65867 42.96866,-13.07959c21.88821,-10.42092 28.27141,-17.62811 28.27141,-17.62811s3.11483,1.99431 10.03192,4.40399c6.91709,2.4109 7.942,3.95825 7.942,3.95825s-5.6612,-13.86662 -27.77762,-17.72163c0,0 -25.97263,-3.85501 -61.43636,8.15698l0,31.91011z"/>
      <path stroke="null" fill="url(#svg_82)" d="m100.35016,75.16016l-6.83963,5.21532l-12.76778,2.87851c0,0 20.06385,2.87851 32.83162,0c12.76778,-2.87851 20.06385,-13.96986 20.06385,-13.96986s5.04017,-5.34892 11.06928,-2.23357c0.00138,-0.00121 -18.36535,-9.51971 -44.35734,8.10961z"/>
      <path stroke="null" fill="url(#svg_81)" d="m146.17916,83.25398l-7.06785,3.1287l-4.78843,2.00159c0,0 14.82036,0.4008 27.1317,3.6036c12.31272,3.20279 12.99599,6.00599 22.34465,8.60879c9.34727,2.6028 20.04172,1.69067 20.04172,1.69067s-12.1094,-4.91168 -31.94503,-9.77599c-19.83701,-4.86431 -25.71674,-9.25737 -25.71674,-9.25737z"/>
      <path stroke="null" fill="url(#svg_80)" d="m39.24713,106.01239c0,0 9.46207,-7.71731 19.38057,-9.51971c9.91851,-1.80241 28.72784,2.52142 33.85791,9.51971l3.42051,5.19588c0,0 -10.26014,0.3 -22.57148,-1.2012c-12.31272,-1.5012 -14.09559,-4.91775 -19.15236,-7.56427c-5.05815,-2.64652 -14.93516,3.56959 -14.93516,3.56959z"/>
      <path stroke="null" fill="url(#svg_79)" d="m144.70888,115.25761c0,0 9.40121,-3.58416 19.28099,-4.02505c11.60179,-0.5174 20.47602,5.46309 20.47602,5.46309s-4.64735,-6.38858 -25.91315,-7.88978c-21.2658,-1.5012 -29.13172,6.45174 -29.13172,6.45174s6.91156,2.63316 15.28786,0z"/>
     </g>
     <g stroke="null">
      <path stroke="null" fill="url(#svg_78)" d="m904.24979,40.33389c0,0 -42.9493,-24.6264 -77.8335,-17.41799c-34.8842,7.20719 -33.85791,39.04079 -33.85791,39.04079s-19.49399,-2.4024 -27.70155,0c-8.20756,2.4024 -16.5479,19.4706 -15.96836,21.29729c0,0 -32.30188,11.3792 -40.67957,11.3792c-8.37769,0 -28.83158,-1.08339 -37.90498,2.79106c-9.07341,3.87444 -22.5867,7.89706 -36.35033,8.58815s-41.3988,8.78976 -61.95228,9.24522c0,0 70.53605,-4.23517 78.28579,-4.54245c7.75112,-0.30728 19.08182,6.97764 39.18024,7.93957c20.09842,0.96193 41.3988,0.82469 59.41975,1.19391c18.02095,0.36923 55.98264,-3.48093 95.99691,-4.59103c40.01427,-1.11011 59.3658,-8.61851 59.3658,-8.61851l0,-66.30521z"/>
      <path stroke="null" fill="url(#svg_77)" d="m793.3108,54.72399c0,0 5.63077,-4.62868 9.27949,-10.1112c3.64873,-5.48131 20.06385,-10.68691 25.53555,-12.28891c5.47171,-1.602 13.6433,-2.93195 20.52028,-6.15539c6.87698,-3.22344 27.19394,1.88135 27.19394,1.88135s-27.97265,-10.62496 -53.34776,-4.17687c-25.37372,6.45052 -29.18151,30.85102 -29.18151,30.85102z"/>
      <path stroke="null" fill="url(#svg_76)" d="m656.8003,102.12944c0,0 25.06528,-0.26842 29.11097,0c4.04569,0.26842 8.87285,-2.87486 24.47192,-4.70642c15.59907,-1.83156 49.79862,0 49.79862,0s-31.87311,-2.34774 -37.14011,-2.79106c-5.267,-0.44331 -12.74426,-0.16032 -12.74426,-0.16032s-16.02231,-1.19877 -29.46644,0.16032c-13.44413,1.36031 -24.03069,7.49747 -24.03069,7.49747z"/>
      <path stroke="null" fill="url(#svg_75)" d="m828.12585,110.29735c0,0 18.03201,-2.0186 33.17464,-2.0186c16.59908,0 31.12206,0 31.12206,0s-28.45398,-5.78009 -38.53155,-6.51125c-10.07757,-0.73116 -25.76515,8.52985 -25.76515,8.52985z"/>
      <path stroke="null" fill="url(#svg_74)" d="m748.88708,83.25398c0,0 16.08317,0.8757 41.3905,0l-14.36392,-2.0769c0,0 2.27942,-13.014 4.332,-15.4164s12.31134,-3.804 12.31134,-3.804s-21.20355,-3.0036 -29.4125,0c-8.20618,3.00239 -14.25742,21.29729 -14.25742,21.29729z"/>
     </g>
     <g stroke="null">
      <path stroke="null" fill="url(#svg_73)" d="m353.08186,73.829c0,0 5.87835,-25.12923 23.20773,-25.44623c17.32938,-0.317 27.65038,16.1087 27.65038,16.1087s14.93792,-4.73799 20.01129,-7.69545c5.07336,-2.95867 19.6987,-24.53288 25.89379,-26.5867c9.40951,-3.11899 45.75984,-9.79906 67.84169,4.01655l-2.02492,12.13952c0,0 32.64628,-2.39268 59.64796,-1.19634c0,0 21.30037,2.70604 21.09429,22.74383l29.33919,-0.50769c0,0 -35.70164,2.73154 -58.37271,6.51368c0,0 -33.14836,8.46183 -106.55166,14.35852c-55.59398,4.46593 -82.56523,-2.83721 -109.47839,0.15668c-31.13866,2.68296 -49.95906,1.0591 -49.95906,1.0591s25.83154,-1.08946 30.49411,-2.73883c0,0 5.07613,-7.04687 7.87699,-8.01245c2.80224,-0.96679 13.32933,-4.91289 13.32933,-4.91289z"/>
      <path stroke="null" fill="url(#svg_72)" d="m515.66181,46.36418c0,0 -3.73586,6.77238 -8.02775,8.81648c0,0 26.67111,-3.13356 32.21751,-4.16472c5.5464,-1.03116 5.09273,-3.0619 8.01392,-4.59225c2.92258,-1.52913 20.27408,-1.49148 20.27408,-1.49148s-34.83441,-1.12104 -52.47776,1.43197z"/>
      <path stroke="null" fill="url(#svg_71)" d="m403.93858,64.49147c0,0 23.36679,-4.01047 26.70431,-5.53353c0,0 18.49951,-0.17125 20.21046,-1.17812c1.71233,-1.00687 11.96555,-19.36736 13.35146,-23.77621c1.38729,-4.40885 -16.30862,-2.73397 -16.30862,-2.73397s-11.0098,10.6116 -22.38337,24.32519c0.00138,-0.00121 -17.09286,7.83634 -21.57424,8.89665z"/>
      <path stroke="null" fill="url(#svg_70)" d="m338.2947,79.59573c0,0 16.64749,0.68137 35.45959,-1.99795c0,0 -13.95036,-2.00645 -20.67104,-3.76878c-0.00138,0 -12.94482,4.09671 -14.78855,5.76673z"/>
      <path stroke="null" fill="url(#svg_69)" d="m353.71949,71.56749c0,0 12.58382,-1.40524 19.6738,-6.00114c0,0 4.64735,-11.74357 8.35694,-13.74759c3.70958,-2.00402 9.8286,0.84776 9.8286,0.84776s-9.72072,-7.41002 -21.725,-2.90644c-12.0029,4.5048 -16.13434,21.80741 -16.13434,21.80741z"/>
      <path stroke="null" fill="url(#svg_68)" d="m442.98604,79.26537c0,0 6.43991,-8.72661 17.44279,-11.20552c3.69852,-0.83319 33.98516,0.01822 33.98516,0.01822s-16.458,1.23642 -18.65719,1.30322s-9.40951,10.08691 -9.40951,10.08691s-13.20347,4.74893 -23.36125,-0.20283z"/>
     </g>
     <g stroke="null">
      <path stroke="null" fill="url(#svg_67)" d="m776.29402,156.44331c0,0 6.17573,-3.71655 19.77062,-2.30766c0,0 2.32644,-9.05089 24.63513,-13.48161s58.00064,2.93195 58.00064,2.93195l-0.45505,4.92868l21.49401,-0.22348c0,0 -20.068,4.59832 -50.47082,6.85619c-30.40283,2.25665 -85.93733,4.18659 -85.93733,4.18659l12.9628,-2.89065z"/>
      <path stroke="null" fill="url(#svg_66)" d="m796.06464,154.13686c0,0 17.58664,0.28664 31.95333,-1.70403c0,0 5.27668,-10.08691 9.2131,-10.60189c3.93642,-0.51497 13.54372,1.95908 17.95317,1.2765c4.40945,-0.68258 23.51617,0.47975 23.51617,0.47975s-25.35436,-7.02137 -52.68523,-3.74691c-27.33364,3.27445 -29.95054,14.29657 -29.95054,14.29657z"/>
      <path stroke="null" fill="url(#svg_65)" d="m769.07817,158.0526c0,0 9.39983,-0.49311 16.53269,-0.94614l16.15232,-1.51941c0,0 -5.33201,-1.59593 -12.64191,-1.75868c0,0 -10.97799,0.13603 -12.82725,2.61616l-7.21585,1.60808z"/>
     </g>
     <g stroke="null">
      <path stroke="null" fill="url(#svg_64)" d="m636.36577,65.95501l18.476,-5.12544c0,0 5.92676,-5.81531 11.26292,-8.14726c5.33616,-2.33195 15.71525,-3.13235 19.87436,-2.73276c4.15911,0.4008 11.55614,5.05864 11.55614,5.05864s8.59761,-3.36554 12.09695,-3.66797c3.49935,-0.30121 13.67927,4.13436 13.67927,4.13436l18.01265,-0.39595c-0.00138,-0.00121 -46.68516,5.47523 -104.95829,10.87638z"/>
      <path stroke="null" fill="url(#svg_63)" d="m654.84177,60.82957c0,0 12.15366,-0.58056 15.57417,-1.38095c0,0 0.91149,-4.40399 2.39422,-5.9064c1.48273,-1.5012 8.53121,-3.64003 8.53121,-3.64003l4.63767,0.04737c0,0 -12.41646,-0.61214 -19.29067,2.49106c-6.87559,3.10441 -11.8466,8.38896 -11.8466,8.38896z"/>
      <path stroke="null" fill="url(#svg_62)" d="m697.53519,55.00819l-3.97791,2.79227c0,0 11.11492,-0.13603 13.68065,-1.39553c2.56434,-1.2595 2.39422,-5.0635 2.39422,-5.0635s-6.58099,0.52712 -12.09695,3.66675z"/>
     </g>
     <g stroke="null">
      <path stroke="null" fill="url(#svg_61)" d="m198.11058,35.26918c0,0 44.04198,-1.99795 65.18744,-4.71492c21.14546,-2.71575 60.46817,-7.62865 60.46817,-7.62865l-18.58388,0.33886c0,0 -10.18683,-3.804 -19.25056,-3.47728c-9.06372,0.32672 -13.19655,4.57281 -13.19655,4.57281s-9.63496,-11.47151 -18.09702,-12.92898c-8.46067,-1.45747 -25.15242,5.27969 -27.13723,8.46183c-1.98481,3.18214 -4.45371,8.02581 -4.45371,8.02581s-6.64461,-2.52264 -12.10525,-2.83235c-5.46064,-0.30971 -15.4732,2.49713 -15.73323,3.53437c-0.26003,1.03723 -0.07054,2.85664 -0.07054,2.85664l-22.67937,3.88537c0.00138,0 15.78856,0.75181 25.65174,-0.09352z"/>
      <path stroke="null" fill="url(#svg_60)" d="m223.04723,27.91867c0,0 13.1675,0.79311 18.63921,0c0,0 0.17151,-9.20271 2.39422,-11.15451c2.22271,-1.9518 9.35418,-5.0052 13.14122,-4.60561c0,0 -2.36794,-1.73803 -9.80647,-0.93157c-7.43853,0.80647 -17.95456,5.53717 -19.57975,7.41367s-4.78843,9.27802 -4.78843,9.27802z"/>
      <path stroke="null" fill="url(#svg_59)" d="m195.20875,28.62068c0,0 2.018,0.68015 5.69439,1.01902c3.67639,0.33886 14.87707,-2.81413 14.87707,-2.81413l0.79392,-0.85019c0,0 -4.21028,-1.56071 -9.07341,-0.76882c-4.86312,0.79311 -12.16196,2.2773 -12.29198,3.41413z"/>
      <path stroke="null" fill="url(#svg_58)" d="m272.73519,24.36122l-6.19509,3.91088c0,0 14.70556,-2.49835 15.50363,-2.79834c0.79807,-0.3 5.69992,-3.6036 6.95443,-4.0044c1.25451,-0.4008 10.21726,0 10.21726,0s-8.664,-2.85178 -16.33766,-1.8267s-10.14257,4.71856 -10.14257,4.71856z"/>
     </g>
    </g>
    <path stroke="null" fill="url(#svg_57)" clip-rule="evenodd" fill-rule="evenodd" d="m1.75017,252.75056c0,0 183.29664,27.09195 527.36545,30.86195c247.79942,2.71575 375.13417,-8.29301 375.13417,-8.29301l0,12.35449l-902.49962,4.68091l0,-39.60434z"/>
    <g stroke="null">
     <polygon stroke="null" fill="url(#svg_56)" clip-rule="evenodd" fill-rule="evenodd" points="360.7292175292969,249.78946685791016 362.56878662109375,149.93934631347656 370.3448486328125,125.59715270996094 376.00189208984375,125.59715270996094 379.5302429199219,96.49267578125 379.5302429199219,96.49267578125 384.3643798828125,125.43196868896484 388.86785888671875,125.43196868896484 398.3299255371094,149.65877532958984 398.3299255371094,253.46350860595703 "/>
     <polygon stroke="null" fill="url(#svg_55)" clip-rule="evenodd" fill-rule="evenodd" points="273.2635498046875,178.84341430664062 273.2635498046875,141.91353607177734 277.5139465332031,138.27715301513672 283.8279724121094,106.63788223266602 291.9124450683594,138.27715301513672 296.39794921875,141.91353607177734 297.49755859375,183.33728790283203 "/>
     <polygon stroke="null" fill="url(#svg_54)" clip-rule="evenodd" fill-rule="evenodd" points="196.00816345214844,161.92461395263672 196.00816345214844,138.05609130859375 198.7565155029297,135.70592498779297 202.83676147460938,115.25761032104492 208.06224060058594,135.70592498779297 210.96133422851562,138.05609130859375 211.67086791992188,164.82862091064453 "/>
     <polygon stroke="null" fill="url(#svg_53)" clip-rule="evenodd" fill-rule="evenodd" points="475.9117126464844,215.66277313232422 507.88720703125,190.75460052490234 537.9207153320312,190.06229400634766 537.9207153320312,184.4534683227539 540.0023193359375,183.33728790283203 540.0023193359375,136.77959442138672 541.4629516601562,131.92742919921875 542.4463500976562,182.95714569091797 545.4229125976562,185.3461685180664 545.4229125976562,190.75460052490234 568.3553466796875,190.75460052490234 601.7830200195312,212.13326263427734 601.7830200195312,283.12059783935547 487.762451171875,283.12059783935547 "/>
     <g stroke="null">
      <polygon stroke="null" fill="url(#svg_52)" clip-rule="evenodd" fill-rule="evenodd" points="777.4295654296875,287.19786834716797 774.13916015625,226.08612823486328 777.482177734375,226.08612823486328 761.3851928710938,204.18883514404297 717.038818359375,202.4690170288086 717.038818359375,137.33950805664062 701.1949462890625,128.67970275878906 699.8297729492188,94.6331787109375 699.3443603515625,94.6331787109375 700.2212524414062,128.59103393554688 660.2526245117188,130.35822296142578 659.5610961914062,141.26010131835938 656.80029296875,143.7790985107422 656.0035400390625,168.49536895751953 620.0322875976562,215.24132537841797 587.7525024414062,215.24132537841797 587.7525024414062,208.9960708618164 586.44677734375,207.56775665283203 585.9156494140625,193.0561752319336 584.533935546875,188.66919708251953 582.3015747070312,192.49626922607422 582.3015747070312,207.5155258178711 581.0263061523438,208.26854705810547 581.0263061523438,214.93282318115234 568.3553466796875,236.05400848388672 571.2489013671875,236.05400848388672 568.3553466796875,262.8544692993164 562.1256103515625,268.1013717651367 546.6981811523438,265.6686019897461 506.8511657714844,260.3293991088867 490.614501953125,254.41936492919922 491.2424011230469,187.7485580444336 470.9019470214844,156.41536712646484 461.6846923828125,156.41536712646484 460.2919006347656,139.2998046875 458.1798400878906,137.0601577758789 458.1798400878906,91.70366668701172 456.9446716308594,91.70366668701172 456.9446716308594,136.500244140625 412.8044738769531,161.7387924194336 408.24981689453125,161.3391876220703 372.8289489746094,188.0267105102539 377.07379150390625,187.7485580444336 375.14434814453125,243.32434844970703 371.7597961425781,244.74903106689453 351.1938781738281,260.4496383666992 346.9130859375,252.53801727294922 344.0789794921875,147.79200744628906 323.0843200683594,138.08645629882812 251.06411743164062,143.31270599365234 250.86221313476562,152.2725067138672 246.75010681152344,156.41536712646484 236.62689208984375,156.41536712646484 236.62689208984375,137.0601577758789 234.0570068359375,131.92742919921875 224.85499572753906,90.30327987670898 216.6972198486328,132.50920867919922 214.11074829101562,137.8994140625 214.5810089111328,151.89842224121094 206.49375915527344,156.41536712646484 191.72323608398438,156.41536712646484 191.72323608398438,140.70018768310547 189.04685974121094,136.500244140625 179.60552978515625,109.0621452331543 172.601318359375,135.38042449951172 168.13101196289062,141.25645446777344 167.33152770996094,161.62946319580078 168.86685180664062,180.0373306274414 140.7157745361328,198.14762115478516 106.6960220336914,234.3949203491211 113.07229614257812,234.3949203491211 107.71125030517578,287.8525161743164 "/>
      <polygon stroke="null" fill="url(#svg_51)" clip-rule="evenodd" fill-rule="evenodd" points="324.70257568359375,272.7774124145508 323.0843200683594,138.08645629882812 344.0789794921875,147.79200744628906 346.9130859375,255.1456527709961 "/>
      <polygon stroke="null" fill="url(#svg_50)" clip-rule="evenodd" fill-rule="evenodd" points="236.62689208984375,156.41536712646484 236.62689208984375,244.54378509521484 250.14707946777344,253.59224700927734 246.75010681152344,156.41536712646484 "/>
      <polygon stroke="null" fill="url(#svg_49)" clip-rule="evenodd" fill-rule="evenodd" points="214.5810089111328,151.89842224121094 214.5810089111328,210.8944320678711 206.23928833007812,226.9472427368164 206.49375915527344,156.41536712646484 "/>
      <polygon stroke="null" fill="url(#svg_48)" clip-rule="evenodd" fill-rule="evenodd" points="470.9019470214844,156.41536712646484 470.9019470214844,283.12059783935547 490.614501953125,254.41936492919922 491.2424011230469,187.7485580444336 "/>
      <polygon stroke="null" fill="url(#svg_47)" clip-rule="evenodd" fill-rule="evenodd" points="456.9446716308594,136.500244140625 456.9446716308594,224.1416244506836 461.6846923828125,217.55628204345703 461.6846923828125,156.41536712646484 460.2919006347656,139.2998046875 "/>
      <polygon stroke="null" fill="url(#svg_46)" clip-rule="evenodd" fill-rule="evenodd" points="408.24981689453125,161.3391876220703 408.24981689453125,287.1080093383789 411.7989501953125,287.5549545288086 412.8044738769531,161.7387924194336 "/>
      <polygon stroke="null" fill="url(#svg_45)" clip-rule="evenodd" fill-rule="evenodd" points="701.1949462890625,128.67970275878906 701.1949462890625,287.8525161743164 723.4219970703125,288.7100143432617 717.038818359375,137.33950805664062 "/>
      <polygon stroke="null" fill="url(#svg_44)" clip-rule="evenodd" fill-rule="evenodd" points="761.4888305664062,208.6948471069336 763.3312377929688,288.40514373779297 777.4295654296875,287.19786834716797 774.13916015625,226.08612823486328 "/>
      <polygon stroke="null" fill="url(#svg_43)" clip-rule="evenodd" fill-rule="evenodd" points="421.2264709472656,160.9153060913086 423.1988220214844,159.33394622802734 423.1988220214844,283.9112777709961 420.53350830078125,283.20198822021484 "/>
      <polygon stroke="null" fill="url(#svg_42)" clip-rule="evenodd" fill-rule="evenodd" points="429.5750732421875,156.4603042602539 431.54608154296875,154.87774658203125 431.54608154296875,279.4562759399414 428.88214111328125,278.74698638916016 "/>
      <polygon stroke="null" fill="url(#svg_41)" clip-rule="evenodd" fill-rule="evenodd" points="438.4036560058594,151.90450286865234 440.3760070800781,150.3231430053711 440.3760070800781,274.9004592895508 437.71075439453125,274.19115447998047 "/>
      <polygon stroke="null" fill="url(#svg_40)" clip-rule="evenodd" fill-rule="evenodd" points="447.28485107421875,147.2430191040039 449.25579833984375,145.6604461669922 449.25579833984375,270.2389907836914 446.5918884277344,269.5296859741211 "/>
     </g>
     <polygon stroke="null" fill="url(#svg_39)" clip-rule="evenodd" fill-rule="evenodd" points="49.16286849975586,288.4148635864258 46.675994873046875,245.84215545654297 24.7103328704834,245.19841766357422 23.913639068603516,288.21204376220703 "/>
     <polygon stroke="null" fill="url(#svg_38)" clip-rule="evenodd" fill-rule="evenodd" points="100.32389068603516,279.42713165283203 98.6406021118164,245.52149200439453 82.08302307128906,245.52149200439453 82.08302307128906,254.41936492919922 78.4356689453125,254.41936492919922 78.4356689453125,238.84264373779297 61.392616271972656,237.94144439697266 61.392616271972656,283.9112777709961 "/>
     <polygon stroke="null" fill="url(#svg_37)" clip-rule="evenodd" fill-rule="evenodd" points="873.7266235351562,279.42713165283203 873.7266235351562,245.52149200439453 855.4857788085938,245.52149200439453 855.4857788085938,254.41936492919922 851.8384399414062,254.41936492919922 851.8384399414062,238.84264373779297 834.7952880859375,237.94144439697266 834.7952880859375,283.9112777709961 "/>
     <polygon stroke="null" fill="url(#svg_36)" clip-rule="evenodd" fill-rule="evenodd" points="828.1258544921875,283.12059783935547 827.1008911132812,232.7394790649414 816.497802734375,232.7394790649414 814.6734008789062,281.96192169189453 "/>
     <polygon stroke="null" fill="url(#svg_35)" clip-rule="evenodd" fill-rule="evenodd" points="812.5654907226562,281.15787506103516 813.7619018554688,238.69202423095703 788.1129760742188,237.94144439697266 786.6301879882812,279.9955520629883 "/>
    </g>
    <g stroke="null">
     <polygon stroke="null" fill="url(#svg_34)" clip-rule="evenodd" fill-rule="evenodd" points="1.750171422958374,286.64281463623047 904.249755859375,287.6739730834961 904.249755859375,317.4999313354492 1.750171422958374,317.3784713745117 "/>
     <polygon stroke="null" fill="#AA86A1" opacity="0.2" points="1.750171422958374,288.52417755126953 514.5870971679688,290.8136215209961 712.5284423828125,290.90470123291016 62.04683303833008,299.8062210083008 229.69046020507812,311.21822357177734 904.249755859375,317.4999313354492 1.750171422958374,317.3784713745117 "/>
     <polygon stroke="null" fill="#AA86A1" opacity="0.2" points="625.8331909179688,290.72982025146484 904.249755859375,294.4062728881836 904.249755859375,288.6055679321289 757.9024047851562,290.9970169067383 "/>
     <polygon stroke="null" fill="#AA86A1" points="630.8165893554688,289.7545394897461 904.249755859375,294.4062728881836 779.7906494140625,293.39942169189453 "/>
     <polygon stroke="null" fill="#AA86A1" points="62.04683303833008,299.8062210083008 573.5213623046875,290.63265228271484 302.9858703613281,296.5086898803711 "/>
     <polygon stroke="null" fill="#AA86A1" opacity="0.2" points="391.5802001953125,303.01265716552734 493.8344421386719,299.8062210083008 771.3547973632812,298.30501556396484 904.249755859375,294.4062728881836 736.7720947265625,300.40743255615234 743.5536499023438,302.0713577270508 904.249755859375,304.76160430908203 904.249755859375,311.21822357177734 "/>
     <polygon stroke="null" fill="#935251" points="483.1787109375,313.57933807373047 500.9548645019531,307.9243392944336 695.1907348632812,309.5105514526367 714.9765625,315.73763275146484 "/>
     <polygon stroke="null" fill="#935251" points="760.181884765625,310.0412826538086 773.8624877929688,315.73763275146484 869.1649780273438,317.17321014404297 857.5383911132812,310.83687591552734 "/>
     <polygon stroke="null" fill="#935251" points="497.1650390625,299.8062210083008 674.68017578125,298.9159469604492 646.3243408203125,291.8107681274414 389.29107666015625,295.22005462646484 "/>
     <polygon stroke="null" fill="#9F6665" points="65.69418334960938,299.75643157958984 334.9986572265625,296.0714340209961 396.2109375,303.01265716552734 229.69046020507812,311.21822357177734 "/>
    </g>
    <g stroke="null">
     <path stroke="null" fill="url(#svg_33)" clip-rule="evenodd" fill-rule="evenodd" d="m80.85755,288.20839c0,0 6.83825,-5.74001 18.80934,-6.7821l-6.15636,-3.02668c0,0 11.9697,1.41132 26.67526,7.55456l7.75251,-5.15459l-2.62244,5.0307c0,0 12.8397,-13.36258 20.6337,-17.72285l-1.82436,4.36027c0,0 11.76915,-11.62212 30.16631,-14.4654c18.39716,-2.8445 47.76125,7.74281 47.76125,7.74281l-1.42049,-4.11493l5.23242,8.73147c0,0 1.70956,6.23555 12.65436,11.43264c10.94341,5.1971 24.90761,-2.10119 24.90761,-2.10119s26.01965,-9.97396 41.59659,-3.43963s18.81764,12.89983 18.81764,12.89983l-242.98333,-0.94493z"/>
     <path stroke="null" fill="url(#svg_32)" clip-rule="evenodd" fill-rule="evenodd" d="m637.68391,276.53648c0,0 -8.91849,-2.98903 -17.49397,-4.39427l0,3.64489c0,0 -3.74831,-4.08092 -17.37779,-3.64489c-13.62947,0.43603 -22.88684,10.43671 -22.88684,10.43671l2.1826,5.5894l71.93302,0.5502c0,-0.00121 -2.5104,-5.42179 -16.35703,-12.18203z"/>
     <polygon stroke="null" fill="#863A74" clip-rule="evenodd" fill-rule="evenodd" points="180.76600646972656,287.83309173583984 14.165244102478027,288.45980072021484 234.80531311035156,291.4731216430664 573.5213623046875,290.63265228271484 751.3283081054688,290.96057891845703 904.249755859375,288.6055679321289 750.6907348632812,286.64281463623047 423.45330810546875,287.54402923583984 "/>
     <path stroke="null" fill="url(#svg_31)" clip-rule="evenodd" fill-rule="evenodd" d="m560.38983,274.9527c0,0 -2.23101,-9.30474 3.31677,-14.86256l0,3.55744c0,0 4.2255,-13.44274 16.21871,-20.57585l3.52839,6.08737l0,-1.97001c0,0 11.4289,5.42422 24.65311,20.91228l0,-2.43276c0,0 8.45376,9.51364 7.07753,19.92363c0,0 -33.29221,0.04372 -45.03646,-1.67974c-11.74563,-1.72467 -9.75806,-8.9598 -9.75806,-8.9598z"/>
     <g stroke="null">
      <g stroke="null">
       <polygon stroke="null" fill="url(#svg_30)" clip-rule="evenodd" fill-rule="evenodd" points="522.74072265625,74.11320686340332 522.74072265625,71.28935432434082 533.7159423828125,71.18490982055664 533.7159423828125,75.3763484954834 "/>
       <path stroke="null" fill="#FFBD40" clip-rule="evenodd" fill-rule="evenodd" d="m586.84379,263.69009l-20.29483,-26.645c0,0 -14.07623,-29.56358 -16.94763,-39.9092c-8.18128,-29.42512 -16.78165,-120.262 -16.78165,-120.262l-9.39983,0c0,0 -6.13976,91.56682 -14.69311,121.06846c-2.97514,10.25574 -18.44419,39.10273 -18.44419,39.10273l-30.31984,39.80474l-0.0083,0l-8.8936,11.6792l42.83727,0c0,0 3.46615,-9.30352 12.31964,-16.48035c5.3652,-4.34934 12.72352,-7.92014 22.47881,-8.15698c7.20063,-0.17368 13.14261,1.45869 18.0002,3.96068c13.54648,6.96914 18.58665,20.67665 18.58665,20.67665l40.48731,0l-18.9269,-24.83895zm-72.40606,-27.64579l11.40123,-37.86631l8.28363,-0.5004l7.8023,38.97763l-27.48716,-0.61092z"/>
       <path stroke="null" fill="#FFA540" clip-rule="evenodd" fill-rule="evenodd" d="m576.58918,288.52904l-11.30718,0c0,0 -9.29748,-25.29076 -36.58685,-24.63733c-25.85782,0.6255 -34.79845,24.63733 -34.79845,24.63733l-11.30718,0l20.6586,-33.25949l48.97703,1.20849l24.36403,32.051z"/>
       <polygon stroke="null" fill="#FFBD40" clip-rule="evenodd" fill-rule="evenodd" points="520.6314086914062,71.31364631652832 535.5015869140625,71.14361000061035 534.6951904296875,66.21978569030762 528.414306640625,59.512996196746826 526.8347778320312,59.512996196746826 521.3285522460938,65.55299758911133 "/>
       <polygon stroke="null" fill="url(#svg_29)" clip-rule="evenodd" fill-rule="evenodd" points="526.8347778320312,59.512996196746826 526.8347778320312,30.956279754638672 527.3507080078125,30.956279754638672 528.414306640625,59.512996196746826 "/>
       <polygon stroke="null" fill="url(#svg_28)" clip-rule="evenodd" fill-rule="evenodd" points="526.7974853515625,196.56990814208984 528.9551391601562,122.75751495361328 532.2899169921875,196.56990814208984 "/>
       <polygon stroke="null" fill="url(#svg_27)" clip-rule="evenodd" fill-rule="evenodd" points="516.2413330078125,235.79651641845703 525.4364624023438,204.46454620361328 532.7324829101562,204.46454620361328 540.4199829101562,236.62120819091797 541.9248657226562,236.65644073486328 534.12255859375,197.6775894165039 525.8389282226562,198.17798614501953 514.437744140625,236.04430389404297 "/>
       <polygon stroke="null" fill="#FFDE40" clip-rule="evenodd" fill-rule="evenodd" points="478.01544189453125,253.14530181884766 581.6002807617188,256.8047409057617 582.0484619140625,257.3913803100586 477.2284240722656,254.17766571044922 "/>
       <polygon stroke="null" fill="url(#svg_26)" clip-rule="evenodd" fill-rule="evenodd" points="523.1722412109375,80.39732933044434 533.10595703125,79.85927963256836 533.507080078125,83.87947654724121 522.7863159179688,85.62965774536133 "/>
       <polygon stroke="null" fill="#FF7F40" clip-rule="evenodd" fill-rule="evenodd" points="486.0999450683594,239.1280746459961 487.6628723144531,240.48108673095703 569.5946044921875,241.04462432861328 571.811767578125,239.9187240600586 "/>
       <path stroke="null" fill="#FFBD40" clip-rule="evenodd" fill-rule="evenodd" d="m580.20748,288.52904c0,0 -16.09976,-28.68546 -52.02547,-28.68546c-35.92571,0 -49.11949,28.68546 -49.11949,28.68546l3.52839,0c0,0 11.23111,-27.25713 45.82762,-27.25713c34.59789,0 48.17066,27.25713 48.17066,27.25713l3.6183,0z"/>
       <polygon stroke="null" fill="#FF9B40" clip-rule="evenodd" fill-rule="evenodd" points="454.8257141113281,286.08533477783203 479.0625,255.2683334350586 500.3504333496094,255.98250579833984 480.69183349609375,285.59586334228516 "/>
       <polygon stroke="null" fill="#FF9B40" clip-rule="evenodd" fill-rule="evenodd" points="555.8696899414062,258.3083724975586 580.2074584960938,258.3083724975586 602.0459594726562,288.52904510498047 580.2074584960938,288.52904510498047 "/>
       <path stroke="null" fill="#FF9B40" clip-rule="evenodd" fill-rule="evenodd" d="m495.92577,234.06699c0,0 10.321,-19.96006 13.76917,-31.6259l11.39432,0l-9.06234,31.95626l-16.10115,-0.33036z"/>
       <path stroke="null" fill="#FF9B40" clip-rule="evenodd" fill-rule="evenodd" d="m536.98017,202.18239l7.49524,32.87811l18.74295,0.3838c0,0 -10.48144,-16.10384 -14.7263,-33.36637l-11.51188,0.10445z"/>
       <path stroke="null" fill="#FF9B40" clip-rule="evenodd" fill-rule="evenodd" d="m511.92733,196.89906c0,0 11.40262,-59.23526 11.60179,-111.39086l4.11761,-0.67287c0,0 0.20747,81.5127 -4.5616,111.73336l-11.1578,0.33036z"/>
       <path stroke="null" fill="#FF9B40" clip-rule="evenodd" fill-rule="evenodd" d="m534.70351,196.56991l-6.14391,-111.88275l3.67224,-0.59999c0,0 6.25041,75.22129 14.5465,111.21353l-12.07482,1.26921z"/>
       <polygon stroke="null" fill="#FFBD40" clip-rule="evenodd" fill-rule="evenodd" points="522.7863159179688,85.62965774536133 522.2939453125,92.03038024902344 534.3424682617188,92.03038024902344 533.507080078125,83.87947654724121 "/>
       <polygon stroke="null" fill="#FF7F40" clip-rule="evenodd" fill-rule="evenodd" points="522.2939453125,92.03038024902344 534.3424682617188,92.03038024902344 534.4282836914062,92.85385131835938 522.1791381835938,93.49028396606445 "/>
       <polygon stroke="null" fill="#FF7F40" clip-rule="evenodd" fill-rule="evenodd" points="454.8257141113281,286.08533477783203 479.0625,255.2683334350586 500.3504333496094,255.98250579833984 499.4154357910156,257.3913803100586 479.8743896484375,256.5083999633789 456.88800048828125,285.64688873291016 "/>
       <polygon stroke="null" fill="#FF7F40" clip-rule="evenodd" fill-rule="evenodd" points="555.8696899414062,258.3083724975586 580.2074584960938,258.3083724975586 602.0459594726562,288.52904510498047 600.908935546875,288.52904510498047 578.9571533203125,259.0978317260742 556.3939208984375,258.9593734741211 "/>
       <polygon stroke="null" fill="#FF7F40" clip-rule="evenodd" fill-rule="evenodd" points="503.2494812011719,255.2695541381836 502.6174011230469,256.28734588623047 552.9208374023438,257.3913803100586 552.2265014648438,256.47803497314453 "/>
       <path stroke="null" fill="#FF7F40" clip-rule="evenodd" fill-rule="evenodd" d="m563.21835,235.44552l-1.13833,0c0,0 -8.57133,-16.69654 -14.35424,-34.60036s-15.49256,-108.08483 -15.49256,-108.08483l0.76626,0c0,0 9.5091,87.95594 15.28786,106.71359c5.77876,18.75886 14.93101,35.9716 14.93101,35.9716z"/>
       <path stroke="null" fill="#FF7F40" clip-rule="evenodd" fill-rule="evenodd" d="m495.21345,235.44552l1.13833,0c0,0 8.57133,-16.69654 14.35424,-34.60036s15.49256,-108.08483 15.49256,-108.08483l-0.76626,0c0,0 -9.5091,87.95594 -15.28786,106.71359c-5.77876,18.75886 -14.93101,35.9716 -14.93101,35.9716z"/>
       <path stroke="null" fill="#FFDE40" clip-rule="evenodd" fill-rule="evenodd" d="m504.64647,196.17639l0.29184,3.29753l47.24257,-2.57487l0,-2.17649c0,0 -11.71382,1.44168 -23.00994,1.6688c-9.93787,0.19919 -24.52448,-0.21498 -24.52448,-0.21498z"/>
       <path stroke="null" fill="#FF7F40" clip-rule="evenodd" fill-rule="evenodd" d="m504.9397,199.47392c0,0 1.56987,0.41538 2.18813,2.96595l44.11252,-0.38137c0,0 -0.39834,-2.63316 0.94192,-5.16066l-47.24257,2.57608z"/>
       <path stroke="null" fill="#FFDE40" clip-rule="evenodd" fill-rule="evenodd" d="m486.09993,239.12806l0,-5.26268c0,0 22.95876,2.50199 42.85525,2.50199c23.22709,0 42.85525,-0.74695 42.85525,-0.74695l0,4.29832l-85.71049,-0.79068z"/>
       <polygon stroke="null" fill="#FFA540" clip-rule="evenodd" fill-rule="evenodd" points="483.0058288574219,252.84528350830078 490.7943115234375,242.31262969970703 497.1650390625,242.31262969970703 490.7196350097656,252.84528350830078 "/>
       <polygon stroke="null" fill="#FFA540" clip-rule="evenodd" fill-rule="evenodd" points="494.3476257324219,252.84528350830078 500.3504333496094,242.31262969970703 506.7225646972656,242.31262969970703 502.0613708496094,252.84528350830078 "/>
       <polygon stroke="null" fill="#FFA540" clip-rule="evenodd" fill-rule="evenodd" points="505.69073486328125,252.84528350830078 510.7060241699219,242.31262969970703 517.078125,242.31262969970703 513.403076171875,252.84528350830078 "/>
       <polygon stroke="null" fill="#FFA540" clip-rule="evenodd" fill-rule="evenodd" points="517.032470703125,252.84528350830078 520.9274291992188,242.31262969970703 527.2981567382812,242.31262969970703 524.7462768554688,252.84528350830078 "/>
       <polygon stroke="null" fill="#FFA540" clip-rule="evenodd" fill-rule="evenodd" points="529.65087890625,252.84528350830078 530.3231201171875,242.31262969970703 536.6951904296875,242.31262969970703 537.3646850585938,252.84528350830078 "/>
       <polygon stroke="null" fill="#FFA540" clip-rule="evenodd" fill-rule="evenodd" points="539.7174682617188,252.84528350830078 538.739501953125,242.31262969970703 545.1102294921875,242.31262969970703 547.4297485351562,252.84528350830078 "/>
       <polygon stroke="null" fill="#FFA540" clip-rule="evenodd" fill-rule="evenodd" points="551.0591430664062,252.84528350830078 546.913818359375,242.31262969970703 553.2846069335938,242.31262969970703 558.77294921875,252.84528350830078 "/>
       <polygon stroke="null" fill="#FFA540" clip-rule="evenodd" fill-rule="evenodd" points="565.3041381835938,252.84528350830078 558.77294921875,242.31262969970703 565.1437377929688,242.31262969970703 573.017822265625,252.84528350830078 "/>
       <polygon stroke="null" fill="#FF7F40" clip-rule="evenodd" fill-rule="evenodd" points="496.7666931152344,242.96485137939453 491.1691589355469,242.97090911865234 483.97265625,252.84528350830078 483.0058288574219,252.84528350830078 490.7943115234375,242.31262969970703 497.1650390625,242.31262969970703 "/>
       <polygon stroke="null" fill="#FF7F40" clip-rule="evenodd" fill-rule="evenodd" points="558.77294921875,242.31262969970703 559.1435546875,242.91141510009766 565.0040283203125,243.36687469482422 572.424560546875,252.84528350830078 573.017822265625,252.84528350830078 565.1437377929688,242.31262969970703 "/>
       <polygon stroke="null" fill="#FF7F40" clip-rule="evenodd" fill-rule="evenodd" points="547.0397338867188,242.6344985961914 552.9208374023438,242.97090911865234 558.107666015625,252.84528350830078 558.77294921875,252.84528350830078 553.2846069335938,242.31262969970703 546.913818359375,242.31262969970703 "/>
       <polygon stroke="null" fill="#FF7F40" clip-rule="evenodd" fill-rule="evenodd" points="538.739501953125,242.31262969970703 538.7879028320312,242.83853912353516 545.2263793945312,242.83853912353516 545.1102294921875,242.31262969970703 "/>
       <polygon stroke="null" fill="#FF7F40" clip-rule="evenodd" fill-rule="evenodd" points="530.3231201171875,242.31262969970703 530.2899169921875,242.83853912353516 536.7283935546875,242.83853912353516 536.6951904296875,242.31262969970703 "/>
       <polygon stroke="null" fill="#FF7F40" clip-rule="evenodd" fill-rule="evenodd" points="506.7225646972656,242.31262969970703 500.3504333496094,242.31262969970703 494.3476257324219,252.84528350830078 495.2134094238281,252.84528350830078 500.5343933105469,242.5761947631836 506.6063537597656,242.5761947631836 "/>
       <polygon stroke="null" fill="#FF7F40" clip-rule="evenodd" fill-rule="evenodd" points="510.7060241699219,242.31262969970703 510.58154296875,242.5761947631836 516.98681640625,242.5761947631836 517.078125,242.31262969970703 "/>
       <polygon stroke="null" fill="#FF7F40" clip-rule="evenodd" fill-rule="evenodd" points="520.9274291992188,242.31262969970703 520.8292236328125,242.5761947631836 527.1708984375,242.83853912353516 527.2981567382812,242.31262969970703 "/>
       <polygon stroke="null" fill="#DB6D57" clip-rule="evenodd" fill-rule="evenodd" opacity="0.5" points="487.6628723144531,240.48108673095703 486.6199951171875,241.8523178100586 572.3719482421875,244.69072723388672 569.5946044921875,241.04462432861328 "/>
       <polygon stroke="null" fill="#FFBD40" clip-rule="evenodd" fill-rule="evenodd" points="512.6755981445312,180.84380340576172 526.8347778320312,165.2342758178711 517.5635986328125,142.83417510986328 527.7684326171875,122.75751495361328 521.347900390625,103.61727523803711 528.3175659179688,93.49028396606445 528.414306640625,95.46271896362305 522.2939453125,103.53711318969727 528.5609741210938,122.75751495361328 528.414306640625,124.33643341064453 518.9536743164062,142.76737213134766 526.8347778320312,163.21568298339844 526.8347778320312,168.39456939697266 512.7572021484375,182.26117706298828 525.5000610351562,194.72257232666016 523.1376953125,195.30191802978516 512.0269165039062,183.79639434814453 "/>
       <polygon stroke="null" fill="#FFBD40" clip-rule="evenodd" fill-rule="evenodd" points="534.6024780273438,194.72257232666016 544.4380493164062,180.93245697021484 532.2982177734375,166.3832550048828 532.5084838867188,164.10352325439453 538.7685546875,141.36941528320312 529.5333251953125,123.06600952148438 534.4282836914062,107.64110565185547 528.5609741210938,93.49028396606445 528.7573852539062,93.14898681640625 534.590087890625,106.92937469482422 534.8307495117188,109.01477432250977 530.6910400390625,123.49110412597656 540.0244140625,141.05726623535156 533.895751953125,166.02495574951172 546.0853271484375,181.15714263916016 534.912353515625,196.18245697021484 534.631591796875,195.25940704345703 "/>
       <polygon stroke="null" fill="#FFBD40" clip-rule="evenodd" fill-rule="evenodd" points="521.0892333984375,202.44107818603516 503.69207763671875,217.1664047241211 512.0269165039062,234.3973617553711 513.0573120117188,232.37389373779297 504.939697265625,217.1664047241211 520.2939453125,205.2455062866211 "/>
       <polygon stroke="null" fill="#FFBD40" clip-rule="evenodd" fill-rule="evenodd" points="536.9801635742188,202.18238067626953 554.7396850585938,217.1664047241211 544.475341796875,235.06171417236328 543.62890625,233.03217315673828 553.6594848632812,217.1664047241211 536.9801635742188,203.85848236083984 "/>
       <polygon stroke="null" fill="#FFBD40" clip-rule="evenodd" fill-rule="evenodd" points="504.939697265625,207.09770965576172 553.405029296875,207.60175323486328 551.2404174804688,202.0597152709961 507.1278076171875,202.44107818603516 "/>
       <polygon stroke="null" fill="#FF7F40" clip-rule="evenodd" fill-rule="evenodd" points="504.939697265625,207.09770965576172 504.939697265625,207.5944595336914 553.5474243164062,207.95032501220703 553.405029296875,207.09770965576172 "/>
       <polygon stroke="null" fill="#DB6D57" clip-rule="evenodd" fill-rule="evenodd" opacity="0.28" points="507.1278076171875,202.44107818603516 506.2163391113281,204.65764617919922 551.5487670898438,202.84796905517578 551.2404174804688,202.0597152709961 "/>
       <polygon stroke="null" fill="#FFBD40" clip-rule="evenodd" fill-rule="evenodd" points="499.4154357910156,257.3913803100586 468.973876953125,268.0952835083008 480.69183349609375,285.59586334228516 482.1731872558594,283.7157516479492 471.5299377441406,269.1033706665039 498.8068542480469,258.3083724975586 "/>
       <polygon stroke="null" fill="#FFBD40" clip-rule="evenodd" fill-rule="evenodd" points="555.8696899414062,258.3083724975586 589.1439819335938,270.67623138427734 580.2074584960938,288.52904510498047 578.9571533203125,286.5663070678711 586.9668579101562,271.4936294555664 557.1062622070312,259.84358978271484 "/>
       <path stroke="null" fill="url(#svg_25)" clip-rule="evenodd" fill-rule="evenodd" opacity="0.2" d="m459.96133,276.84984l46.25501,-4.80115c-8.85349,7.17683 -12.31964,16.48035 -12.31964,16.48035l-42.83727,0l8.8936,-11.6792l0.0083,0z"/>
       <path stroke="null" fill="url(#svg_24)" clip-rule="evenodd" fill-rule="evenodd" opacity="0.2" d="m605.76931,288.52904l-40.48731,0c0,0 -5.04017,-13.70873 -18.58665,-20.67665l40.14706,-4.16229l18.9269,24.83895z"/>
       <path stroke="null" fill="url(#svg_23)" clip-rule="evenodd" fill-rule="evenodd" d="m576.58918,288.52904l-11.30718,0c0,0 -9.29748,-25.29076 -36.58685,-24.63733c-25.85782,0.6255 -34.79845,24.63733 -34.79845,24.63733l-11.30718,0c0,0 11.74978,-27.25713 45.82762,-27.25713c34.0723,0.00121 48.17204,27.25713 48.17204,27.25713z"/>
       <polygon stroke="null" fill="#DB6D57" clip-rule="evenodd" fill-rule="evenodd" opacity="0.5" points="504.939697265625,199.47393035888672 551.32470703125,199.47393035888672 552.1822509765625,196.89905548095703 "/>
       <path stroke="null" fill="#FFBD40" clip-rule="evenodd" fill-rule="evenodd" d="m520.4129,73.74641l-1.25174,7.47075c0,0 5.76493,-0.82833 9.39844,-0.82833c4.58511,0 9.1066,0.82833 9.1066,0.82833l-1.40251,-8.3003l-15.8508,0.82954z"/>
      </g>
      <path stroke="null" fill="url(#svg_22)" clip-rule="evenodd" fill-rule="evenodd" d="m586.84379,263.69009l-4.79812,-6.2987l0.00277,0l-0.44675,-0.58663l-0.00277,0l-9.22693,-12.1128l0,0l-2.77735,-3.64732l2.21718,-1.12468l0,-4.29832c0,0 -2.14802,0.08138 -5.84654,0.19069c-1.90735,-4.04691 -8.09138,-17.27953 -12.41784,-27.86199l-0.14108,-0.85141l-0.19779,0l-1.65977,-4.25096l0,0l-0.29599,-0.7591c-0.00415,-0.01093 -0.0083,-0.02186 -0.01245,-0.03158c-0.00277,-0.01822 -0.16321,-1.12347 0.08437,-2.58215l0,0l0.85755,-2.57487l0,-2.17649c0,0 -1.17152,0.14453 -3.12867,0.34858c-5.94751,-23.28067 -12.00843,-77.09657 -14.73875,-103.3104l-0.78424,-7.64929c-0.13416,-1.33237 -0.25035,-2.4947 -0.34717,-3.48457c2.58232,0.24534 4.48414,0.59149 4.48414,0.59149l-1.40251,-8.3003l-2.54913,0.1336l0,-1.86556l-10.96416,0.10445l12.75118,-0.14575l-0.80775,-4.92382l-6.27946,-6.7068l-1.06364,-28.55671l-0.51591,0l0,28.55671l-5.50629,6.04l-0.69849,5.76065l2.10929,-0.02429l0,2.3356l-2.32783,0.12146l-1.25174,7.47075c0,0 1.7801,-0.25506 3.98483,-0.48218c-0.00553,0.07166 -0.00968,0.14089 -0.01521,0.21498l-0.34579,4.68091l-0.4924,6.40073l-0.1148,1.4599l0,0c-2.15217,27.11746 -6.93922,80.12689 -12.99599,102.79421c-2.7483,-0.05708 -4.5367,-0.1081 -4.5367,-0.1081l0.29184,3.29753c0,0 1.56987,0.41538 2.18813,2.96595c-0.00138,0.00121 -0.00138,0.00243 -0.00138,0.00486l-2.18675,4.65298l0,0.49311c-4.24624,9.527 -10.50219,21.58393 -13.26294,26.82232c-3.47168,-0.31821 -5.57683,-0.54777 -5.57683,-0.54777l0,5.26268l1.56433,1.3518l-1.04427,1.37124l0,0l-8.60175,11.29297l-0.00138,0l-0.78701,1.03359l0.00138,0l-17.2699,22.67217l-0.0083,0l-8.8936,11.6792l28.00169,0l3.52839,0l11.30718,0l0,0c0,0 0.04979,-0.1336 0.15076,-0.3753c0.00968,-0.02429 0.02213,-0.05223 0.0332,-0.07895c0.03458,-0.08138 0.07331,-0.17368 0.11757,-0.2757c0.02766,-0.06559 0.05809,-0.13239 0.0899,-0.20526c0.02905,-0.0668 0.06224,-0.13846 0.09544,-0.21133c0.03596,-0.08016 0.07607,-0.16761 0.11757,-0.25506c0.04979,-0.1081 0.10374,-0.22226 0.16044,-0.34129c0.04979,-0.10324 0.10097,-0.21012 0.15491,-0.32064c0.04149,-0.08623 0.08437,-0.17247 0.13002,-0.26356c0.08437,-0.16882 0.17289,-0.34493 0.26833,-0.52833c0.04703,-0.08988 0.09682,-0.1834 0.14523,-0.27692c0.07192,-0.13725 0.148,-0.27813 0.22545,-0.42267c0.05256,-0.09595 0.10235,-0.18947 0.15629,-0.28785c0.1148,-0.20648 0.23652,-0.42267 0.36238,-0.64129c0.06362,-0.10931 0.12863,-0.22105 0.19364,-0.334c0.11203,-0.1919 0.2296,-0.38866 0.35132,-0.58906c0.07884,-0.13117 0.16183,-0.26356 0.24482,-0.39838c0.1148,-0.18583 0.23513,-0.3753 0.35823,-0.56598c0.07469,-0.1166 0.15076,-0.23441 0.22822,-0.35344c0.16736,-0.25506 0.34025,-0.51376 0.52006,-0.77732c0.08022,-0.1166 0.16321,-0.23441 0.24482,-0.35222c0.14246,-0.20405 0.28908,-0.40931 0.43846,-0.617c0.08161,-0.11295 0.16044,-0.22348 0.24482,-0.33765c0.20056,-0.27206 0.41079,-0.54777 0.62518,-0.82469c0.09544,-0.12389 0.19364,-0.24777 0.29184,-0.37166c0.21715,-0.27449 0.43984,-0.54898 0.66944,-0.8259c0.09267,-0.11174 0.18949,-0.22348 0.28354,-0.33522c0.19641,-0.23198 0.39834,-0.46396 0.60443,-0.69594c0.10374,-0.1166 0.20609,-0.2332 0.31259,-0.34979c0.26695,-0.29392 0.54081,-0.58785 0.82297,-0.88177c0.1065,-0.11052 0.21577,-0.22226 0.32504,-0.33279c0.24067,-0.24534 0.48687,-0.48947 0.73721,-0.73238c0.08852,-0.08623 0.17566,-0.17247 0.26556,-0.2587c0.31397,-0.29878 0.64039,-0.59513 0.97097,-0.88906c0.11895,-0.10567 0.2379,-0.21133 0.35823,-0.31579c0.34164,-0.29635 0.6888,-0.59149 1.04842,-0.88177c0.12448,-0.10081 0.2545,-0.19797 0.38036,-0.29757c0.28078,-0.22105 0.56432,-0.44088 0.85616,-0.65708c0.16321,-0.12146 0.33057,-0.2417 0.49655,-0.36194c0.28078,-0.20162 0.56709,-0.39959 0.85616,-0.59635c0.16044,-0.1081 0.31812,-0.21741 0.48133,-0.32429c0.43292,-0.28299 0.87553,-0.56113 1.3292,-0.83197c0.12587,-0.0753 0.25865,-0.14575 0.38728,-0.21984c0.35132,-0.20283 0.70679,-0.40202 1.07055,-0.59513c0.19087,-0.10202 0.3859,-0.20162 0.57954,-0.3c0.32919,-0.16761 0.66391,-0.33036 1.00278,-0.49068c0.19087,-0.08988 0.38036,-0.18097 0.574,-0.26842c0.509,-0.22834 1.02767,-0.4506 1.56018,-0.65951c0.12587,-0.0498 0.25588,-0.09352 0.38313,-0.14089c0.43292,-0.16397 0.87138,-0.32307 1.31952,-0.47246c0.21162,-0.07044 0.42601,-0.13846 0.64039,-0.20526c0.39558,-0.12389 0.79669,-0.2417 1.20333,-0.35465c0.20885,-0.0583 0.41494,-0.1166 0.62656,-0.17125c0.60028,-0.15425 1.20887,-0.29878 1.83266,-0.42631c0.08022,-0.01579 0.16459,-0.02793 0.2462,-0.04372c0.56294,-0.11052 1.13694,-0.2089 1.71924,-0.29514c0.213,-0.03158 0.43016,-0.0583 0.64593,-0.08745c0.48548,-0.06316 0.9765,-0.11781 1.47581,-0.16518c0.213,-0.01943 0.42601,-0.0413 0.64178,-0.0583c0.69987,-0.05344 1.40942,-0.09595 2.13695,-0.11295c0.00138,0 0.00138,0 0.00277,0c0,0 0.00138,0 0.00138,0c0.87415,-0.02065 1.72754,-0.01336 2.56573,0.017c0.32919,0.01215 0.64316,0.04251 0.96682,0.06316c0.5007,0.03036 1.00554,0.05587 1.49379,0.10445c0.36377,0.03644 0.71508,0.08988 1.07193,0.13482c0.43016,0.05466 0.86446,0.10445 1.28356,0.17247c0.36238,0.0583 0.71232,0.13239 1.06778,0.2004c0.39696,0.07652 0.79669,0.14939 1.18397,0.23684c0.34717,0.07895 0.68465,0.17004 1.02491,0.25749c0.37898,0.09716 0.75934,0.19311 1.12864,0.30121c0.32642,0.09595 0.64316,0.2004 0.96128,0.30364c0.36792,0.11903 0.73583,0.23805 1.09268,0.3668c0.30291,0.10931 0.59752,0.22591 0.89351,0.34129c0.35823,0.14089 0.71647,0.28299 1.06502,0.43238c0.27801,0.11903 0.54911,0.24413 0.8202,0.36801c0.35132,0.16154 0.69987,0.32672 1.04012,0.49797c0.3278,0.16518 0.65423,0.33157 0.97235,0.50404c0.15215,0.08259 0.30567,0.16154 0.45505,0.24534c0.4841,0.27085 0.95852,0.54898 1.4191,0.83562c0.10789,0.0668 0.21162,0.13725 0.31812,0.20526c0.36653,0.2332 0.72753,0.47125 1.08023,0.71416c0.14661,0.10081 0.29184,0.20162 0.43569,0.30485c0.33887,0.24048 0.67082,0.48461 0.99586,0.73116c0.10235,0.07773 0.20747,0.15425 0.30844,0.2332c0.41218,0.32064 0.81467,0.64615 1.20472,0.97529c0.10097,0.08623 0.19917,0.17247 0.29876,0.2587c0.29876,0.25749 0.59198,0.51619 0.87691,0.77853c0.11618,0.10567 0.23098,0.21255 0.34579,0.31943c0.30706,0.28785 0.6072,0.57813 0.90042,0.86962c0.05671,0.05587 0.11618,0.11174 0.17151,0.16882c0.34302,0.34615 0.67359,0.69351 0.99586,1.04209c0.08852,0.09595 0.17428,0.1919 0.26141,0.28785c0.24067,0.26599 0.4758,0.53076 0.7054,0.79554c0.08714,0.10081 0.17566,0.20283 0.26141,0.30485c0.28631,0.33886 0.5657,0.67651 0.83265,1.01173c0.00692,0.0085 0.01383,0.017 0.02075,0.02551c0.27663,0.34858 0.54081,0.69351 0.79669,1.03723c0.07054,0.09474 0.1397,0.18947 0.20885,0.28421c0.19226,0.26113 0.37898,0.51983 0.55879,0.7761c0.06086,0.08623 0.1231,0.17247 0.18119,0.2587c0.22822,0.33036 0.44952,0.65708 0.65838,0.97529c0.01798,0.02672 0.0332,0.05101 0.04979,0.07773c0.19226,0.29514 0.37621,0.58542 0.55187,0.86962c0.05118,0.08259 0.10097,0.16518 0.15215,0.24656c0.14938,0.24534 0.29323,0.48582 0.43016,0.71902c0.03458,0.0583 0.07054,0.11903 0.10512,0.17733c0.16874,0.29028 0.3278,0.57206 0.47718,0.8429c0.01936,0.03522 0.03734,0.06802 0.05671,0.10324c0.12863,0.23562 0.25035,0.46275 0.36515,0.68258c0.03043,0.05951 0.06086,0.11781 0.09129,0.1749c0.11342,0.21984 0.2213,0.43238 0.32089,0.63279c0.0083,0.01822 0.01936,0.03765 0.02766,0.05466c0.11342,0.22834 0.21577,0.44331 0.30982,0.6425c0.00968,0.01943 0.01798,0.03765 0.02628,0.0583c0.08299,0.17733 0.15906,0.34372 0.22684,0.49433c0.00968,0.02186 0.02075,0.04494 0.02905,0.0668c0.29738,0.66922 0.43846,1.05424 0.43846,1.05424l0,0l11.3058,0l3.6183,0l20.70147,0l1.13694,0l3.7248,0l-18.91722,-24.84016zm-57.88861,-27.32272c0,0 0,0 0,0l-12.52711,-0.27813c-0.58922,-0.02429 -1.17567,-0.0498 -1.75936,-0.07652l1.57263,-0.21619l8.23522,-28.05996l9.05404,0.0668l6.81474,28.50692c-3.64319,0.03522 -7.46343,0.05708 -11.39017,0.05708zm12.89779,-0.07166l-5.69854,-28.47291l0,0l5.69854,28.47291c0,0 0,0 0,0z"/>
     </g>
     <path stroke="null" fill="url(#svg_21)" clip-rule="evenodd" fill-rule="evenodd" d="m516.76832,287.79666c0,0 -5.054,-7.68087 -9.91851,-11.30512c0,0 -8.10936,-4.01169 -19.20492,-3.55501c-11.09556,0.45667 -16.74431,13.87148 -16.74431,13.87148l45.86773,0.98865z"/>
     <path stroke="null" fill="url(#svg_20)" clip-rule="evenodd" fill-rule="evenodd" d="m548.75761,275.78467c0,0 -7.26702,-1.38338 -12.93652,5.4728l-6.70685,5.99749l1.89214,-3.18336l-6.2352,4.06027c0,0 1.2061,1.48055 -8.00424,2.09147c-9.21034,0.61092 -25.26169,-10.79622 -25.26169,-10.79622l-17.11361,-13.7646c0,0 -5.11624,-19.63213 -19.71944,-30.36519c0,0 4.62799,3.85137 3.50488,8.97195c0,0 -11.37357,-15.0994 -27.96435,-18.8038l-4.58096,-6.72623c0,0 -5.89356,12.21482 -7.07062,17.82973c0,0 -11.24079,21.32037 -10.3127,35.99103c0.92809,14.67066 2.22824,17.27346 2.22824,17.27346l148.26029,2.33681c0.00138,0.00243 0.54219,-10.56423 -9.97936,-16.38562z"/>
     <g stroke="null">
      <polygon stroke="null" fill="url(#svg_19)" clip-rule="evenodd" fill-rule="evenodd" points="558.7383422851562,288.52904510498047 587.7525024414062,262.1864547729492 623.5094604492188,289.4751663208008 "/>
      <polygon stroke="null" fill="url(#svg_18)" clip-rule="evenodd" fill-rule="evenodd" points="558.7383422851562,288.52904510498047 578.9280395507812,288.8241653442383 587.7525024414062,262.1864547729492 "/>
      <polygon stroke="null" fill="#FF97B0" clip-rule="evenodd" fill-rule="evenodd" opacity="0.5" points="587.7525024414062,262.1864547729492 601.7830200195312,289.15816497802734 578.9280395507812,288.8241653442383 "/>
      <g stroke="null">
       <polygon stroke="null" fill="url(#svg_17)" clip-rule="evenodd" fill-rule="evenodd" points="594.6460571289062,267.4479293823242 588.8147583007812,288.95169830322266 589.633544921875,288.95169830322266 594.8825073242188,267.62889862060547 "/>
       <polygon stroke="null" fill="url(#svg_16)" clip-rule="evenodd" fill-rule="evenodd" points="604.2450561523438,274.77416229248047 601.1426391601562,289.1484603881836 601.7830200195312,289.15816497802734 604.480224609375,274.9526901245117 "/>
       <polygon stroke="null" fill="url(#svg_15)" clip-rule="evenodd" fill-rule="evenodd" points="614.4360961914062,282.55098724365234 612.7417602539062,289.30635833740234 613.2091674804688,289.30635833740234 615.182861328125,283.12059783935547 "/>
       <polygon stroke="null" fill="url(#svg_14)" clip-rule="evenodd" fill-rule="evenodd" points="616.6242065429688,289.3743667602539 585.2933349609375,269.60741424560547 585.161865234375,270.0057907104492 616.1248779296875,289.3670883178711 "/>
       <polygon stroke="null" fill="url(#svg_13)" clip-rule="evenodd" fill-rule="evenodd" points="582.3042602539062,278.63159942626953 597.7429809570312,289.08895111083984 597.0942993164062,289.08895111083984 582.10791015625,279.2267379760742 "/>
      </g>
      <g stroke="null" opacity="0.33">
       <polygon stroke="null" fill="url(#svg_12)" clip-rule="evenodd" fill-rule="evenodd" points="582.10791015625,279.2267379760742 573.2447509765625,288.74158477783203 572.65966796875,288.74158477783203 582.3042602539062,278.63159942626953 "/>
       <polygon stroke="null" fill="url(#svg_11)" clip-rule="evenodd" fill-rule="evenodd" points="585.161865234375,270.0057907104492 564.7411499023438,288.6176986694336 564.21142578125,288.6176986694336 585.2933349609375,269.60741424560547 "/>
       <polygon stroke="null" fill="url(#svg_10)" clip-rule="evenodd" fill-rule="evenodd" points="575.2640991210938,288.74158477783203 583.4537353515625,266.0888442993164 583.0111083984375,266.49085235595703 575.0787353515625,288.74158477783203 "/>
       <polygon stroke="null" fill="url(#svg_9)" clip-rule="evenodd" fill-rule="evenodd" points="568.9584350585938,288.66992950439453 572.0012817382812,276.4866714477539 571.6195068359375,276.8340530395508 568.3553466796875,288.66992950439453 "/>
       <polygon stroke="null" fill="url(#svg_8)" clip-rule="evenodd" fill-rule="evenodd" points="565.291748046875,282.5789108276367 563.9445190429688,288.6055679321289 563.7066650390625,288.6019058227539 565.0731201171875,282.7768783569336 "/>
      </g>
      <polygon stroke="null" fill="url(#svg_7)" clip-rule="evenodd" fill-rule="evenodd" opacity="0.93" points="603.6267700195312,274.3016891479492 579.92529296875,285.81449127197266 587.7525024414062,262.1864547729492 "/>
     </g>
     <g stroke="null">
      <path stroke="null" fill="url(#svg_6)" clip-rule="evenodd" fill-rule="evenodd" d="m130.78756,288.51932c0,0 -1.48134,-9.7772 -1.70956,-15.03989l1.70956,1.30079c0,0 -0.17151,-8.53471 5.64322,-16.63339l0,2.71211l0.95713,-1.02995c0,0 4.34306,8.96952 8.10521,21.74182l0,-2.84328c0,0 2.56434,5.02949 2.73585,9.79785l-17.44141,-0.00607z"/>
      <path stroke="null" fill="url(#svg_5)" clip-rule="evenodd" fill-rule="evenodd" d="m102.04865,288.21204c0,0 -2.98205,-10.56181 -9.56304,-17.97183l1.1978,5.12422c0,0 -8.37769,-10.14521 -21.8398,-13.17797c0,0 -7.47864,3.26109 -9.27396,9.96424l-2.39283,-1.9105c0,0 -6.88113,8.46183 -8.07754,17.07549c0,0 -5.7345,-4.74042 -12.11632,-5.61612c0,0 1.19642,1.02873 2.09408,2.27608c0,0 -3.88939,-2.49592 -8.82582,-2.49592c-4.93643,0 -6.73036,6.73109 -6.73036,6.73109l75.52781,0l0,0.00121z"/>
      <path stroke="null" fill="#CCE5AA" d="m26.52223,288.21204l21.16068,-1.01902c0,0 0.17289,-1.63237 -1.4523,-3.51858c0,0 3.61691,1.95058 5.87005,3.64246c0,0 0.49378,-6.06551 5.86175,-13.98079c0,0 -2.37485,5.07321 0,11.30512l0,-0.97651c0,0 0.40941,3.45421 17.76507,3.6789c17.35704,0.22469 22.70703,-8.09989 22.70703,-8.09989s3.00557,7.06023 3.61553,8.96952l-75.52781,0l0,-0.00121z"/>
      <path stroke="null" fill="#CCE5AA" d="m129.38229,277.44861c0,0 1.57678,5.41329 4.99729,8.24321l1.53944,0c0,0 3.07749,1.80241 6.498,1.80241c3.42051,0 4.87834,-4.14772 4.87834,-4.14772s0.92947,3.41413 0.93639,5.17888l-17.44279,-0.00607c-0.00138,0 -1.10236,-7.10153 -1.40665,-11.07071z"/>
     </g>
     <g stroke="null">
      <path stroke="null" fill="url(#svg_4)" clip-rule="evenodd" fill-rule="evenodd" d="m781.9566,281.15788c0,0 16.21318,-12.73344 26.23266,-13.70994l-1.60859,2.15949c0,0 12.99599,-4.78658 27.70155,-2.15949c14.70556,2.62709 23.25614,20.72038 23.25614,20.72038l-75.58175,0.53805l0,-7.54848z"/>
      <path stroke="null" fill="url(#svg_3)" clip-rule="evenodd" fill-rule="evenodd" d="m749.46661,288.49382c0,0 -2.32783,-17.54066 11.17163,-39.97478l0,5.21653c0,0 10.48836,-15.98724 25.99199,-24.59968l-6.38458,28.75347l4.10378,-2.74369c0,0 6.83963,6.28656 9.12043,14.46175l1.13971,-3.51858c0,0 8.79678,8.98045 19.61709,13.23991c10.82031,4.25946 25.52587,-0.334 39.20652,-2.84207l-5.47171,2.84207c0,0 12.31134,-5.30762 25.99199,-5.32949c13.68065,-0.02065 25.30733,14.70588 25.30733,14.70588l-110.55862,-0.46518l-39.23557,0.25384z"/>
      <path stroke="null" fill="#CCE5AA" d="m753.12364,264.44433c0,0 -2.06226,11.33669 -1.37761,17.34269l1.37761,-2.29673l5.23381,5.29912c0,0 13.67927,1.66638 29.86755,-1.67002c16.18828,-3.33518 12.92684,-11.39985 12.92684,-11.39985l8.0485,10.24481c0,0 9.57549,5.90762 20.97672,6.20275s19.56315,-9.53672 19.56315,-9.53672l-2.69021,7.1829c0,0 28.04457,2.57972 37.62006,1.57893s6.82995,-6.23555 6.82995,-6.23555s5.48277,5.25661 7.76219,7.54848l-150.37511,0.01215c0,0 1.03321,-16.41112 4.23656,-24.27296z"/>
      <path stroke="null" fill="#CCE5AA" d="m760.63824,253.73678c0,0 -1.59614,6.06429 0,12.35328c0,0 6.27946,-22.07825 25.99199,-36.95296c0,-0.00121 -15.73185,8.96102 -25.99199,24.59968z"/>
     </g>
    </g>
    <path stroke="null" fill="#CCE5AA" d="m780.24565,257.88936c0,0 -1.70956,7.23027 -1.36793,12.93627c0,0 1.93778,-10.50594 5.47171,-15.67996l-4.10378,2.74369z"/>
   </g>
  </g>
 </g>
 <defs>
  <linearGradient gradientTransform="matrix(1.3831411600112915,0,0,1.2145590782165527,1.750171422958374,0.4999961853027344)" y2="0" x2="326.25" y1="231.7404" x1="326.25" gradientUnits="userSpaceOnUse" id="svg_87">
   <stop stop-color="#F8FBFF" offset="0.014"/>
   <stop stop-color="#DFE6FF" offset="0.4022"/>
   <stop stop-color="#DBE5FF" offset="0.5082"/>
   <stop stop-color="#CFE0FF" offset="0.6144"/>
   <stop stop-color="#BBD9FF" offset="0.7209"/>
   <stop stop-color="#9FCFFF" offset="0.8276"/>
   <stop stop-color="#7BC2FF" offset="0.9334"/>
   <stop stop-color="#60B9FF" offset="1"/>
  </linearGradient>
  <linearGradient gradientTransform="matrix(1.3831411600112915,0,0,1.2145590782165527,1.750171422958374,0.4999961853027344)" y2="171.3188" x2="576.2048" y1="187.8217" x1="576.2048" gradientUnits="userSpaceOnUse" id="svg_86">
   <stop stop-color="#BED6FF" offset="0"/>
   <stop stop-color="#C5E1FF" offset="0.4836"/>
   <stop stop-color="#C7E5FF" offset="1"/>
  </linearGradient>
  <linearGradient gradientTransform="matrix(1.3831411600112915,0,0,1.2145590782165527,1.750171422958374,0.4999961853027344)" y2="164.4215" x2="125.2255" y1="180.3212" x1="125.2255" gradientUnits="userSpaceOnUse" id="svg_85">
   <stop stop-color="#BED6FF" offset="0"/>
   <stop stop-color="#C5E1FF" offset="0.4836"/>
   <stop stop-color="#C7E5FF" offset="1"/>
  </linearGradient>
  <linearGradient gradientTransform="matrix(1.3831411600112915,0,0,1.2145590782165527,1.750171422958374,0.4999961853027344)" y2="21.135" x2="126.5657" y1="101.8067" x1="126.5657" gradientUnits="userSpaceOnUse" id="svg_84">
   <stop stop-color="#BED6FF" offset="0"/>
   <stop stop-color="#C5E1FF" offset="0.4836"/>
   <stop stop-color="#C7E5FF" offset="1"/>
  </linearGradient>
  <linearGradient gradientTransform="matrix(1.3831411600112915,0,0,1.2145590782165527,1.750171422958374,0.4999961853027344)" y2="20.6499" x2="32.2505" y1="54.123" x1="32.2505" gradientUnits="userSpaceOnUse" id="svg_83">
   <stop stop-color="#D6E5FF" offset="0"/>
   <stop stop-color="#DDEDFF" offset="0.4226"/>
   <stop stop-color="#E0F1FF" offset="1"/>
  </linearGradient>
  <linearGradient gradientTransform="matrix(1.3831411600112915,0,0,1.2145590782165527,1.750171422958374,0.4999961853027344)" y2="52.6807" x2="80.2343" y1="69.1879" x1="80.2343" gradientUnits="userSpaceOnUse" id="svg_82">
   <stop stop-color="#D6E5FF" offset="0"/>
   <stop stop-color="#DDEDFF" offset="0.4226"/>
   <stop stop-color="#E0F1FF" offset="1"/>
  </linearGradient>
  <linearGradient gradientTransform="matrix(1.3831411600112915,0,0,1.2145590782165527,1.750171422958374,0.4999961853027344)" y2="68.1347" x2="120.9791" y1="83.9336" x1="120.9791" gradientUnits="userSpaceOnUse" id="svg_81">
   <stop stop-color="#D6E5FF" offset="0"/>
   <stop stop-color="#DDEDFF" offset="0.4226"/>
   <stop stop-color="#E0F1FF" offset="1"/>
  </linearGradient>
  <linearGradient gradientTransform="matrix(1.3831411600112915,0,0,1.2145590782165527,1.750171422958374,0.4999961853027344)" y2="78.6979" x2="47.5913" y1="91.171" x1="47.5913" gradientUnits="userSpaceOnUse" id="svg_80">
   <stop stop-color="#D6E5FF" offset="0"/>
   <stop stop-color="#DDEDFF" offset="0.4226"/>
   <stop stop-color="#E0F1FF" offset="1"/>
  </linearGradient>
  <linearGradient gradientTransform="matrix(1.3831411600112915,0,0,1.2145590782165527,1.750171422958374,0.4999961853027344)" y2="89.0173" x2="112.2031" y1="95.6685" x1="112.2031" gradientUnits="userSpaceOnUse" id="svg_79">
   <stop stop-color="#D6E5FF" offset="0"/>
   <stop stop-color="#DDEDFF" offset="0.4226"/>
   <stop stop-color="#E0F1FF" offset="1"/>
  </linearGradient>
  <linearGradient gradientTransform="matrix(1.3831411600112915,0,0,1.2145590782165527,1.750171422958374,0.4999961853027344)" y2="17.3674" x2="532.3936" y1="98.2851" x1="532.3936" gradientUnits="userSpaceOnUse" id="svg_78">
   <stop stop-color="#BED6FF" offset="0"/>
   <stop stop-color="#C5E1FF" offset="0.4836"/>
   <stop stop-color="#C7E5FF" offset="1"/>
  </linearGradient>
  <linearGradient gradientTransform="matrix(1.3831411600112915,0,0,1.2145590782165527,1.750171422958374,0.4999961853027344)" y2="17.535" x2="602.1265" y1="44.6453" x1="602.1265" gradientUnits="userSpaceOnUse" id="svg_77">
   <stop stop-color="#BED6FF" offset="0"/>
   <stop stop-color="#D0E4FF" offset="0.314"/>
   <stop stop-color="#DCEEFF" offset="0.6572"/>
   <stop stop-color="#E0F1FF" offset="1"/>
  </linearGradient>
  <linearGradient gradientTransform="matrix(1.3831411600112915,0,0,1.2145590782165527,1.750171422958374,0.4999961853027344)" y2="76.9697" x2="510.9684" y1="83.6896" x1="510.9684" gradientUnits="userSpaceOnUse" id="svg_76">
   <stop stop-color="#D6E5FF" offset="0"/>
   <stop stop-color="#DDEDFF" offset="0.4226"/>
   <stop stop-color="#E0F1FF" offset="1"/>
  </linearGradient>
  <linearGradient gradientTransform="matrix(1.3831411600112915,0,0,1.2145590782165527,1.750171422958374,0.4999961853027344)" y2="86.8727" x2="643.9488" y1="86.8727" x1="597.4633" gradientUnits="userSpaceOnUse" id="svg_75">
   <stop stop-color="#D6E5FF" offset="0"/>
   <stop stop-color="#DDEDFF" offset="0.4226"/>
   <stop stop-color="#E0F1FF" offset="1"/>
  </linearGradient>
  <linearGradient gradientTransform="matrix(1.3831411600112915,0,0,1.2145590782165527,1.750171422958374,0.4999961853027344)" y2="49.5007" x2="555.9612" y1="68.4552" x1="555.9612" gradientUnits="userSpaceOnUse" id="svg_74">
   <stop stop-color="#D6E5FF" offset="0"/>
   <stop stop-color="#DDEDFF" offset="0.4226"/>
   <stop stop-color="#E0F1FF" offset="1"/>
  </linearGradient>
  <linearGradient gradientTransform="matrix(1.3765020370483398,0.11866243183612823,-0.14315512776374817,1.2795380353927612,1.819744348526001,-46.65100860595703)" y2="23.7616" x2="342.3138" y1="85.3945" x1="342.3138" gradientUnits="userSpaceOnUse" id="svg_73">
   <stop stop-color="#BED6FF" offset="0"/>
   <stop stop-color="#C5E1FF" offset="0.4836"/>
   <stop stop-color="#C7E5FF" offset="1"/>
  </linearGradient>
  <linearGradient gradientTransform="matrix(1.3765020370483398,0.11866243183612823,-0.14315512776374817,1.2795380353927612,1.819744348526001,-46.65100860595703)" y2="33.1028" x2="393.5065" y1="45.0727" x1="393.5065" gradientUnits="userSpaceOnUse" id="svg_72">
   <stop stop-color="#D6E5FF" offset="0"/>
   <stop stop-color="#DDEDFF" offset="0.4226"/>
   <stop stop-color="#E0F1FF" offset="1"/>
  </linearGradient>
  <linearGradient gradientTransform="matrix(1.3765020370483398,0.11866243183612823,-0.14315512776374817,1.2795380353927612,1.819744348526001,-46.65100860595703)" y2="29.6989" x2="318.7546" y1="59.1983" x1="318.7546" gradientUnits="userSpaceOnUse" id="svg_71">
   <stop stop-color="#D6E5FF" offset="0"/>
   <stop stop-color="#DDEDFF" offset="0.4226"/>
   <stop stop-color="#E0F1FF" offset="1"/>
  </linearGradient>
  <linearGradient gradientTransform="matrix(1.3765020370483398,0.11866243183612823,-0.14315512776374817,1.2795380353927612,1.819744348526001,-46.65100860595703)" y2="69.82" x2="264.9464" y1="75.2707" x1="264.9464" gradientUnits="userSpaceOnUse" id="svg_70">
   <stop stop-color="#D6E5FF" offset="0"/>
   <stop stop-color="#DDEDFF" offset="0.4226"/>
   <stop stop-color="#E0F1FF" offset="1"/>
  </linearGradient>
  <linearGradient gradientTransform="matrix(1.3765020370483398,0.11866243183612823,-0.14315512776374817,1.2795380353927612,1.819744348526001,-46.65100860595703)" y2="48.3523" x2="275.5829" y1="68.0272" x1="275.5829" gradientUnits="userSpaceOnUse" id="svg_69">
   <stop stop-color="#D6E5FF" offset="0"/>
   <stop stop-color="#DDEDFF" offset="0.4226"/>
   <stop stop-color="#E0F1FF" offset="1"/>
  </linearGradient>
  <linearGradient gradientTransform="matrix(1.3765020370483398,0.11866243183612823,-0.14315512776374817,1.2795380353927612,1.819744348526001,-46.65100860595703)" y2="55.9384" x2="345.6255" y1="69.1422" x1="345.6255" gradientUnits="userSpaceOnUse" id="svg_68">
   <stop stop-color="#D6E5FF" offset="0"/>
   <stop stop-color="#DDEDFF" offset="0.4226"/>
   <stop stop-color="#E0F1FF" offset="1"/>
  </linearGradient>
  <linearGradient gradientTransform="matrix(1.378576636314392,0.09801492840051651,-0.1116195023059845,1.2105507850646973,18.337491989135742,-72.6867904663086)" y2="125.7889" x2="601.0909" y1="146.9471" x1="601.0909" gradientUnits="userSpaceOnUse" id="svg_67">
   <stop stop-color="#BED6FF" offset="0"/>
   <stop stop-color="#D0E4FF" offset="0.314"/>
   <stop stop-color="#DCEEFF" offset="0.6572"/>
   <stop stop-color="#E0F1FF" offset="1"/>
  </linearGradient>
  <linearGradient gradientTransform="matrix(1.378576636314392,0.09801492840051651,-0.1116195023059845,1.2105507850646973,18.337491989135742,-72.6867904663086)" y2="125.3882" x2="604.9752" y1="140.7713" x1="604.9752" gradientUnits="userSpaceOnUse" id="svg_66">
   <stop stop-color="#E6EFFF" offset="0"/>
   <stop stop-color="#E0F1FF" offset="1"/>
  </linearGradient>
  <linearGradient gradientTransform="matrix(1.378576636314392,0.09801492840051651,-0.1116195023059845,1.2105507850646973,18.337491989135742,-72.6867904663086)" y2="140.8693" x2="568.0578" y1="145.5599" x1="568.0578" gradientUnits="userSpaceOnUse" id="svg_65">
   <stop stop-color="#E6EFFF" offset="0"/>
   <stop stop-color="#E0F1FF" offset="1"/>
  </linearGradient>
  <linearGradient gradientTransform="matrix(1.3831411600112915,0,0,1.2145590782165527,1.750171422958374,0.4999961853027344)" y2="40.6331" x2="496.7635" y1="53.8924" x1="496.7635" gradientUnits="userSpaceOnUse" id="svg_64">
   <stop stop-color="#BED6FF" offset="0"/>
   <stop stop-color="#C5E1FF" offset="0.4836"/>
   <stop stop-color="#C7E5FF" offset="1"/>
  </linearGradient>
  <linearGradient gradientTransform="matrix(1.3831411600112915,0,0,1.2145590782165527,1.750171422958374,0.4999961853027344)" y2="40.674" x2="483.4355" y1="49.672" x1="483.4355" gradientUnits="userSpaceOnUse" id="svg_63">
   <stop stop-color="#D6E5FF" offset="0"/>
   <stop stop-color="#DDEDFF" offset="0.4226"/>
   <stop stop-color="#E0F1FF" offset="1"/>
  </linearGradient>
  <linearGradient gradientTransform="matrix(1.3831411600112915,0,0,1.2145590782165527,1.750171422958374,0.4999961853027344)" y2="41.8589" x2="505.9824" y1="47.1773" x1="505.9824" gradientUnits="userSpaceOnUse" id="svg_62">
   <stop stop-color="#D6E5FF" offset="0"/>
   <stop stop-color="#DDEDFF" offset="0.4226"/>
   <stop stop-color="#E0F1FF" offset="1"/>
  </linearGradient>
  <linearGradient gradientTransform="matrix(1.3792684078216553,0.09036325663328171,-0.1029057502746582,1.211158275604248,0.9772725701332092,-11.412765502929688)" y2="5.0526" x2="180.6711" y1="29.182" x1="180.6711" gradientUnits="userSpaceOnUse" id="svg_61">
   <stop stop-color="#BED6FF" offset="0"/>
   <stop stop-color="#C5E1FF" offset="0.4836"/>
   <stop stop-color="#C7E5FF" offset="1"/>
  </linearGradient>
  <linearGradient gradientTransform="matrix(1.3831411600112915,0,0,1.2145590782165527,1.750171422958374,0.4999961853027344)" y2="8.6569" x2="172.3504" y1="22.8658" x1="172.3504" gradientUnits="userSpaceOnUse" id="svg_60">
   <stop stop-color="#D6E5FF" offset="0"/>
   <stop stop-color="#DDEDFF" offset="0.4226"/>
   <stop stop-color="#E0F1FF" offset="1"/>
  </linearGradient>
  <linearGradient gradientTransform="matrix(1.3831411600112915,0,0,1.2145590782165527,1.750171422958374,0.4999961853027344)" y2="20.1574" x2="147.5926" y1="24.0128" x1="147.5926" gradientUnits="userSpaceOnUse" id="svg_59">
   <stop stop-color="#D6E5FF" offset="0"/>
   <stop stop-color="#DDEDFF" offset="0.4226"/>
   <stop stop-color="#E0F1FF" offset="1"/>
  </linearGradient>
  <linearGradient gradientTransform="matrix(1.3831411600112915,0,0,1.2145590782165527,1.750171422958374,0.4999961853027344)" y2="15.5781" x2="203.252" y1="22.8658" x1="203.252" gradientUnits="userSpaceOnUse" id="svg_58">
   <stop stop-color="#D6E5FF" offset="0"/>
   <stop stop-color="#DDEDFF" offset="0.4226"/>
   <stop stop-color="#E0F1FF" offset="1"/>
  </linearGradient>
  <linearGradient gradientTransform="matrix(1.3831411600112915,0,0,1.2145590782165527,1.750171422958374,0.4999961853027344)" y2="207.6885" x2="326.25" y1="240.2971" x1="326.25" gradientUnits="userSpaceOnUse" id="svg_57">
   <stop stop-color="#EBF2FF" offset="0"/>
   <stop stop-color="#DEE0FA" offset="1"/>
  </linearGradient>
  <linearGradient gradientTransform="matrix(1.3831411600112915,0,0,1.2145590782165527,1.750171422958374,0.4999961853027344)" y2="79.0349" x2="273.1317" y1="208.2764" x1="273.1317" gradientUnits="userSpaceOnUse" id="svg_56">
   <stop stop-color="#D6E5FF" offset="0"/>
   <stop stop-color="#A6ACF1" offset="1"/>
  </linearGradient>
  <linearGradient gradientTransform="matrix(1.3831411600112915,0,0,1.2145590782165527,1.750171422958374,0.4999961853027344)" y2="87.3884" x2="205.0622" y1="150.5384" x1="205.0622" gradientUnits="userSpaceOnUse" id="svg_55">
   <stop stop-color="#D6E5FF" offset="0"/>
   <stop stop-color="#A6ACF1" offset="1"/>
  </linearGradient>
  <linearGradient gradientTransform="matrix(1.3831411600112915,0,0,1.2145590782165527,1.750171422958374,0.4999961853027344)" y2="94.4847" x2="146.1095" y1="135.2991" x1="146.1095" gradientUnits="userSpaceOnUse" id="svg_54">
   <stop stop-color="#D6E5FF" offset="0"/>
   <stop stop-color="#A6ACF1" offset="1"/>
  </linearGradient>
  <linearGradient gradientTransform="matrix(1.3831411600112915,0,0,1.2145590782165527,1.750171422958374,0.4999961853027344)" y2="108.2104" x2="388.3172" y1="232.6942" x1="388.3172" gradientUnits="userSpaceOnUse" id="svg_53">
   <stop stop-color="#D6E5FF" offset="0"/>
   <stop stop-color="#A6ACF1" offset="1"/>
  </linearGradient>
  <linearGradient gradientTransform="matrix(1.3831411600112915,0,0,1.2145590782165527,1.750171422958374,0.4999961853027344)" y2="73.939" x2="318.3616" y1="236.5899" x1="318.3616" gradientUnits="userSpaceOnUse" id="svg_52">
   <stop stop-color="#C7DBFF" offset="0"/>
   <stop stop-color="#8990EC" offset="1"/>
  </linearGradient>
  <linearGradient gradientTransform="matrix(1.3831411600112915,0,0,1.2145590782165527,1.750171422958374,0.4999961853027344)" y2="113.2811" x2="240.9359" y1="224.1784" x1="240.9359" gradientUnits="userSpaceOnUse" id="svg_51">
   <stop stop-color="#A8C7FF" offset="0"/>
   <stop stop-color="#8289EB" offset="1"/>
  </linearGradient>
  <linearGradient gradientTransform="matrix(1.3831411600112915,0,0,1.2145590782165527,1.750171422958374,0.4999961853027344)" y2="128.372" x2="174.7015" y1="208.3819" x1="174.7015" gradientUnits="userSpaceOnUse" id="svg_50">
   <stop stop-color="#A8C7FF" offset="0"/>
   <stop stop-color="#8289EB" offset="1"/>
  </linearGradient>
  <linearGradient gradientTransform="matrix(1.3831411600112915,0,0,1.2145590782165527,1.750171422958374,0.4999961853027344)" y2="124.6534" x2="150.8598" y1="186.4437" x1="150.8598" gradientUnits="userSpaceOnUse" id="svg_49">
   <stop stop-color="#A8C7FF" offset="0"/>
   <stop stop-color="#8289EB" offset="1"/>
  </linearGradient>
  <linearGradient gradientTransform="matrix(1.3831411600112915,0,0,1.2145590782165527,1.750171422958374,0.4999961853027344)" y2="128.372" x2="346.546" y1="232.6942" x1="346.546" gradientUnits="userSpaceOnUse" id="svg_48">
   <stop stop-color="#A8C7FF" offset="0"/>
   <stop stop-color="#8289EB" offset="1"/>
  </linearGradient>
  <linearGradient gradientTransform="matrix(1.3831411600112915,0,0,1.2145590782165527,1.750171422958374,0.4999961853027344)" y2="111.9748" x2="330.8152" y1="184.1338" x1="330.8152" gradientUnits="userSpaceOnUse" id="svg_47">
   <stop stop-color="#A8C7FF" offset="0"/>
   <stop stop-color="#8289EB" offset="1"/>
  </linearGradient>
  <linearGradient gradientTransform="matrix(1.3831411600112915,0,0,1.2145590782165527,1.750171422958374,0.4999961853027344)" y2="132.4257" x2="295.5421" y1="236.345" x1="295.5421" gradientUnits="userSpaceOnUse" id="svg_46">
   <stop stop-color="#A8C7FF" offset="0"/>
   <stop stop-color="#8289EB" offset="1"/>
  </linearGradient>
  <linearGradient gradientTransform="matrix(1.3831411600112915,0,0,1.2145590782165527,1.750171422958374,0.4999961853027344)" y2="105.536" x2="513.7281" y1="237.2957" x1="513.7281" gradientUnits="userSpaceOnUse" id="svg_45">
   <stop stop-color="#A8C7FF" offset="0"/>
   <stop stop-color="#8289EB" offset="1"/>
  </linearGradient>
  <linearGradient gradientTransform="matrix(1.3831411600112915,0,0,1.2145590782165527,1.750171422958374,0.4999961853027344)" y2="171.4159" x2="555.0478" y1="237.0447" x1="555.0478" gradientUnits="userSpaceOnUse" id="svg_44">
   <stop stop-color="#A8C7FF" offset="0"/>
   <stop stop-color="#8289EB" offset="1"/>
  </linearGradient>
  <linearGradient gradientTransform="matrix(1.3831411600112915,0,0,1.2145590782165527,1.750171422958374,0.4999961853027344)" y2="130.7746" x2="303.7405" y1="233.3453" x1="303.7405" gradientUnits="userSpaceOnUse" id="svg_43">
   <stop stop-color="#A8C7FF" offset="0"/>
   <stop stop-color="#8289EB" offset="1"/>
  </linearGradient>
  <linearGradient gradientTransform="matrix(1.3831411600112915,0,0,1.2145590782165527,1.750171422958374,0.4999961853027344)" y2="127.1062" x2="309.7762" y1="229.6768" x1="309.7762" gradientUnits="userSpaceOnUse" id="svg_42">
   <stop stop-color="#A8C7FF" offset="0"/>
   <stop stop-color="#8289EB" offset="1"/>
  </linearGradient>
  <linearGradient gradientTransform="matrix(1.3831411600112915,0,0,1.2145590782165527,1.750171422958374,0.4999961853027344)" y2="123.3559" x2="316.1595" y1="225.9265" x1="316.1595" gradientUnits="userSpaceOnUse" id="svg_41">
   <stop stop-color="#A8C7FF" offset="0"/>
   <stop stop-color="#8289EB" offset="1"/>
  </linearGradient>
  <linearGradient gradientTransform="matrix(1.3831411600112915,0,0,1.2145590782165527,1.750171422958374,0.4999961853027344)" y2="119.5171" x2="322.5803" y1="222.0878" x1="322.5803" gradientUnits="userSpaceOnUse" id="svg_40">
   <stop stop-color="#A8C7FF" offset="0"/>
   <stop stop-color="#8289EB" offset="1"/>
  </linearGradient>
  <linearGradient gradientTransform="matrix(1.3831411600112915,0,0,1.2145590782165527,1.750171422958374,0.4999961853027344)" y2="201.4713" x2="25.1516" y1="237.0531" x1="25.1516" gradientUnits="userSpaceOnUse" id="svg_39">
   <stop stop-color="#D6E5FF" offset="0"/>
   <stop stop-color="#A6ACF1" offset="1"/>
  </linearGradient>
  <linearGradient gradientTransform="matrix(1.3831411600112915,0,0,1.2145590782165527,1.750171422958374,0.4999961853027344)" y2="195.4959" x2="57.1942" y1="233.3453" x1="57.1942" gradientUnits="userSpaceOnUse" id="svg_38">
   <stop stop-color="#D6E5FF" offset="0"/>
   <stop stop-color="#A6ACF1" offset="1"/>
  </linearGradient>
  <linearGradient gradientTransform="matrix(1.3831411600112915,0,0,1.2145590782165527,1.750171422958374,0.4999961853027344)" y2="195.4959" x2="616.3584" y1="233.3453" x1="616.3584" gradientUnits="userSpaceOnUse" id="svg_37">
   <stop stop-color="#D6E5FF" offset="0"/>
   <stop stop-color="#A6ACF1" offset="1"/>
  </linearGradient>
  <linearGradient gradientTransform="matrix(1.3831411600112915,0,0,1.2145590782165527,1.750171422958374,0.4999961853027344)" y2="191.2128" x2="592.6002" y1="232.6942" x1="592.6002" gradientUnits="userSpaceOnUse" id="svg_36">
   <stop stop-color="#D6E5FF" offset="0"/>
   <stop stop-color="#A6ACF1" offset="1"/>
  </linearGradient>
  <linearGradient gradientTransform="matrix(1.3831411600112915,0,0,1.2145590782165527,1.750171422958374,0.4999961853027344)" y2="195.4959" x2="577.2702" y1="231.0777" x1="577.2702" gradientUnits="userSpaceOnUse" id="svg_35">
   <stop stop-color="#D6E5FF" offset="0"/>
   <stop stop-color="#A6ACF1" offset="1"/>
  </linearGradient>
  <linearGradient gradientTransform="matrix(1.3831411600112915,0,0,1.2145590782165527,1.750171422958374,0.4999961853027344)" y2="248.2973" x2="652.5" y1="248.2973" x1="0" gradientUnits="userSpaceOnUse" id="svg_34">
   <stop stop-color="#EAE4EA" offset="0"/>
   <stop stop-color="#D8D8F7" offset="1"/>
  </linearGradient>
  <linearGradient gradientTransform="matrix(1.3831411600112915,0,0,1.2145590782165527,1.750171422958374,0.4999961853027344)" y2="211.6143" x2="145.0313" y1="237.6612" x1="145.0313" gradientUnits="userSpaceOnUse" id="svg_33">
   <stop stop-color="#5A6400" offset="0"/>
   <stop stop-color="#567700" offset="1"/>
  </linearGradient>
  <linearGradient gradientTransform="matrix(1.3831411600112915,0,0,1.2145590782165527,1.750171422958374,0.4999961853027344)" y2="223.6274" x2="444.8081" y1="237.3023" x1="444.8081" gradientUnits="userSpaceOnUse" id="svg_32">
   <stop stop-color="#5A6400" offset="0"/>
   <stop stop-color="#567700" offset="1"/>
  </linearGradient>
  <linearGradient gradientTransform="matrix(1.3831411600112915,0,0,1.2145590782165527,1.750171422958374,0.4999961853027344)" y2="199.72" x2="423.594" y1="234.7289" x1="423.594" gradientUnits="userSpaceOnUse" id="svg_31">
   <stop stop-color="#667F00" offset="0"/>
   <stop stop-color="#B1A400" offset="1"/>
  </linearGradient>
  <linearGradient gradientTransform="matrix(1.3831411600112915,0,0,1.2145590782165527,1.750171422958374,0.4999961853027344)" y2="59.9233" x2="384.6067" y1="59.9233" x1="376.6721" gradientUnits="userSpaceOnUse" id="svg_30">
   <stop stop-color="#D85239" offset="0"/>
   <stop stop-color="#E25B36" offset="1"/>
  </linearGradient>
  <linearGradient gradientTransform="matrix(1.3831411600112915,0,0,1.2145590782165527,1.750171422958374,0.4999961853027344)" y2="36.8318" x2="380.7742" y1="36.8318" x1="379.6321" gradientUnits="userSpaceOnUse" id="svg_29">
   <stop stop-color="#D85239" offset="0"/>
   <stop stop-color="#E25B36" offset="1"/>
  </linearGradient>
  <linearGradient gradientTransform="matrix(1.3831411600112915,0,0,1.2145590782165527,1.750171422958374,0.4999961853027344)" y2="131.0462" x2="383.5762" y1="131.0462" x1="379.6053" gradientUnits="userSpaceOnUse" id="svg_28">
   <stop stop-color="#D85239" offset="0"/>
   <stop stop-color="#E25B36" offset="1"/>
  </linearGradient>
  <linearGradient gradientTransform="matrix(1.3831411600112915,0,0,1.2145590782165527,1.750171422958374,0.4999961853027344)" y2="178.3915" x2="390.5419" y1="178.3915" x1="370.6687" gradientUnits="userSpaceOnUse" id="svg_27">
   <stop stop-color="#D85239" offset="0"/>
   <stop stop-color="#E25B36" offset="1"/>
  </linearGradient>
  <linearGradient gradientTransform="matrix(1.3831411600112915,0,0,1.2145590782165527,1.750171422958374,0.4999961853027344)" y2="67.7158" x2="384.4558" y1="67.7158" x1="376.705" gradientUnits="userSpaceOnUse" id="svg_26">
   <stop stop-color="#D85239" offset="0"/>
   <stop stop-color="#E25B36" offset="1"/>
  </linearGradient>
  <linearGradient gradientTransform="matrix(1.3831411600112915,0,0,1.2145590782165527,1.750171422958374,0.4999961853027344)" y2="223.5783" x2="344.7863" y1="237.1474" x1="344.7863" gradientUnits="userSpaceOnUse" id="svg_25">
   <stop stop-color="#890050" offset="0"/>
   <stop stop-color="#DB6D57" offset="1"/>
  </linearGradient>
  <linearGradient gradientTransform="matrix(1.3831411600112915,0,0,1.2145590782165527,1.750171422958374,0.4999961853027344)" y2="216.6964" x2="415.3466" y1="237.1474" x1="415.3466" gradientUnits="userSpaceOnUse" id="svg_24">
   <stop stop-color="#890050" offset="0"/>
   <stop stop-color="#DB6D57" offset="1"/>
  </linearGradient>
  <linearGradient gradientTransform="matrix(1.3831411600112915,0,0,1.2145590782165527,1.750171422958374,0.4999961853027344)" y2="225.9265" x2="415.6037" y1="225.9265" x1="347.6434" gradientUnits="userSpaceOnUse" id="svg_23">
   <stop stop-color="#D85239" offset="0"/>
   <stop stop-color="#E25B36" offset="1"/>
  </linearGradient>
  <linearGradient gradientTransform="matrix(1.3831411600112915,0,0,1.2145590782165527,1.750171422958374,0.4999961853027344)" y2="25.0759" x2="380.7744" y1="237.1474" x1="380.7744" gradientUnits="userSpaceOnUse" id="svg_22">
   <stop stop-color="#3B003D" offset="0"/>
   <stop stop-color="#6F2CCF" offset="1"/>
  </linearGradient>
  <linearGradient gradientTransform="matrix(1.3831411600112915,0,0,1.2145590782165527,1.750171422958374,0.4999961853027344)" y2="224.2785" x2="355.7734" y1="236.5436" x1="355.7734" gradientUnits="userSpaceOnUse" id="svg_21">
   <stop stop-color="#5A6400" offset="0"/>
   <stop stop-color="#567700" offset="1"/>
  </linearGradient>
  <linearGradient gradientTransform="matrix(1.3831411600112915,0,0,1.2145590782165527,1.750171422958374,0.4999961853027344)" y2="179.6881" x2="348.2785" y1="240.1474" x1="348.2785" gradientUnits="userSpaceOnUse" id="svg_20">
   <stop stop-color="#667F00" offset="0"/>
   <stop stop-color="#B1A400" offset="1"/>
  </linearGradient>
  <linearGradient gradientTransform="matrix(1.3831411600112915,0,0,1.2145590782165527,1.750171422958374,0.4999961853027344)" y2="215.4579" x2="426.1122" y1="237.9258" x1="426.1122" gradientUnits="userSpaceOnUse" id="svg_19">
   <stop stop-color="#FFB069" offset="0"/>
   <stop stop-color="#FFB39F" offset="0.9944"/>
  </linearGradient>
  <linearGradient gradientTransform="matrix(1.3831411600112915,0,0,1.2145590782165527,1.750171422958374,0.4999961853027344)" y2="215.4579" x2="413.1862" y1="237.39" x1="413.1862" gradientUnits="userSpaceOnUse" id="svg_18">
   <stop stop-color="#D4464C" offset="0"/>
   <stop stop-color="#E25549" offset="1"/>
  </linearGradient>
  <linearGradient gradientTransform="matrix(1.3831411600112915,0,0,1.2145590782165527,1.750171422958374,0.4999961853027344)" y2="225.6811" x2="427.6196" y1="236.2075" x1="424.8736" gradientUnits="userSpaceOnUse" id="svg_17">
   <stop stop-color="#E56F55" offset="0"/>
   <stop stop-color="#F3895E" offset="0.5168"/>
   <stop stop-color="#FFE566" offset="0.9944"/>
  </linearGradient>
  <linearGradient gradientTransform="matrix(1.3831411600112915,0,0,1.2145590782165527,1.750171422958374,0.4999961853027344)" y2="227.9415" x2="435.7011" y1="238.4114" x1="432.9698" gradientUnits="userSpaceOnUse" id="svg_16">
   <stop stop-color="#E56F55" offset="0"/>
   <stop stop-color="#F3895E" offset="0.5168"/>
   <stop stop-color="#FFE566" offset="0.9944"/>
  </linearGradient>
  <linearGradient gradientTransform="matrix(1.3831411600112915,0,0,1.2145590782165527,1.750171422958374,0.4999961853027344)" y2="229.8989" x2="443.9051" y1="240.2512" x1="441.2045" gradientUnits="userSpaceOnUse" id="svg_15">
   <stop stop-color="#E56F55" offset="0"/>
   <stop stop-color="#F3895E" offset="0.5168"/>
   <stop stop-color="#FFE566" offset="0.9944"/>
  </linearGradient>
  <linearGradient gradientTransform="matrix(1.3831411600112915,0,0,1.2145590782165527,1.750171422958374,0.4999961853027344)" y2="227.2054" x2="433.8705" y1="237.7533" x1="431.1189" gradientUnits="userSpaceOnUse" id="svg_14">
   <stop stop-color="#E56F55" offset="0"/>
   <stop stop-color="#F3895E" offset="0.5168"/>
   <stop stop-color="#FFE566" offset="0.9944"/>
  </linearGradient>
  <linearGradient gradientTransform="matrix(1.3831411600112915,0,0,1.2145590782165527,1.750171422958374,0.4999961853027344)" y2="225.6227" x2="427.3131" y1="236.0042" x1="424.6049" gradientUnits="userSpaceOnUse" id="svg_13">
   <stop stop-color="#E56F55" offset="0"/>
   <stop stop-color="#F3895E" offset="0.5168"/>
   <stop stop-color="#FFE566" offset="0.9944"/>
  </linearGradient>
  <linearGradient gradientTransform="matrix(1.3831411600112915,0,0,1.2145590782165527,1.750171422958374,0.4999961853027344)" y2="238.3722" x2="412.6096" y1="221.3137" x1="424.8656" gradientUnits="userSpaceOnUse" id="svg_12">
   <stop stop-color="#F2CAC2" offset="0"/>
   <stop stop-color="#890050" offset="1"/>
  </linearGradient>
  <linearGradient gradientTransform="matrix(1.3831411600112915,0,0,1.2145590782165527,1.750171422958374,0.4999961853027344)" y2="236.1383" x2="409.5004" y1="219.0798" x1="421.7564" gradientUnits="userSpaceOnUse" id="svg_11">
   <stop stop-color="#F2CAC2" offset="0"/>
   <stop stop-color="#890050" offset="1"/>
  </linearGradient>
  <linearGradient gradientTransform="matrix(1.3831411600112915,0,0,1.2145590782165527,1.750171422958374,0.4999961853027344)" y2="237.1879" x2="410.9615" y1="220.1296" x1="423.2174" gradientUnits="userSpaceOnUse" id="svg_10">
   <stop stop-color="#F2CAC2" offset="0"/>
   <stop stop-color="#890050" offset="1"/>
  </linearGradient>
  <linearGradient gradientTransform="matrix(1.3831411600112915,0,0,1.2145590782165527,1.750171422958374,0.4999961853027344)" y2="235.5962" x2="408.7457" y1="218.5377" x1="421.0017" gradientUnits="userSpaceOnUse" id="svg_9">
   <stop stop-color="#F2CAC2" offset="0"/>
   <stop stop-color="#890050" offset="1"/>
  </linearGradient>
  <linearGradient gradientTransform="matrix(1.3831411600112915,0,0,1.2145590782165527,1.750171422958374,0.4999961853027344)" y2="234.44" x2="407.1366" y1="217.3817" x1="419.3925" gradientUnits="userSpaceOnUse" id="svg_8">
   <stop stop-color="#F2CAC2" offset="0"/>
   <stop stop-color="#890050" offset="1"/>
  </linearGradient>
  <linearGradient gradientTransform="matrix(1.3831411600112915,0,0,1.2145590782165527,1.750171422958374,0.4999961853027344)" y2="215.4579" x2="426.584" y1="234.9118" x1="426.584" gradientUnits="userSpaceOnUse" id="svg_7">
   <stop stop-color="#000000" offset="0"/>
   <stop stop-color="#FFBD6A" offset="1"/>
  </linearGradient>
  <linearGradient gradientTransform="matrix(1.3831411600112915,0,0,1.2145590782165527,1.750171422958374,0.4999961853027344)" y2="212.132" x2="98.9808" y1="237.1435" x1="98.9808" gradientUnits="userSpaceOnUse" id="svg_6">
   <stop stop-color="#667F00" offset="0"/>
   <stop stop-color="#B1A400" offset="1"/>
  </linearGradient>
  <linearGradient gradientTransform="matrix(1.3831411600112915,0,0,1.2145590782165527,1.750171422958374,0.4999961853027344)" y2="215.4579" x2="45.2127" y1="236.8864" x1="45.2127" gradientUnits="userSpaceOnUse" id="svg_5">
   <stop stop-color="#667F00" offset="0"/>
   <stop stop-color="#B1A400" offset="1"/>
  </linearGradient>
  <linearGradient gradientTransform="matrix(1.3831411600112915,0,0,1.2145590782165527,1.750171422958374,0.4999961853027344)" y2="219.1416" x2="591.4054" y1="237.2925" x1="591.4054" gradientUnits="userSpaceOnUse" id="svg_4">
   <stop stop-color="#5A6400" offset="0"/>
   <stop stop-color="#567700" offset="1"/>
  </linearGradient>
  <linearGradient gradientTransform="matrix(1.3831411600112915,0,0,1.2145590782165527,1.750171422958374,0.4999961853027344)" y2="188.2463" x2="594.688" y1="237.2925" x1="594.688" gradientUnits="userSpaceOnUse" id="svg_3">
   <stop stop-color="#667F00" offset="0"/>
   <stop stop-color="#B1A400" offset="1"/>
  </linearGradient>
 </defs>
</svg>